<svg width="50" height="50" viewBox="0 0 50 50" fill="none" xmlns="http://www.w3.org/2000/svg">
<path d="M23.1036 8.26551C22.6032 8.40502 21.7969 8.99096 21.2408 9.60481C19.1556 11.9486 19.7951 16.2176 22.4364 17.5848C23.6041 18.1987 25.7171 18.115 26.8293 17.4453C30.1934 15.3805 29.4984 9.26998 25.7727 8.2376C24.6328 7.90278 24.2714 7.93068 23.1036 8.26551ZM26.2732 9.63271C27.8858 10.6372 28.4696 13.1484 27.5521 15.1015C26.3844 17.529 22.6588 17.529 21.4911 15.1015C20.2121 12.395 21.8803 9.07467 24.5216 9.07467C24.9942 9.07467 25.7727 9.32579 26.2732 9.63271Z" fill="white"/>
<path d="M33.1036 8.26551C32.6032 8.40502 31.7969 8.99096 31.2408 9.60481C29.1556 11.9486 29.7951 16.2176 32.4364 17.5848C33.6041 18.1987 35.7171 18.115 36.8293 17.4453C40.1934 15.3805 39.4984 9.26998 35.7727 8.2376C34.6328 7.90278 34.2714 7.93068 33.1036 8.26551ZM36.2732 9.63271C37.8858 10.6372 38.4696 13.1484 37.5521 15.1015C36.3844 17.529 32.6588 17.529 31.4911 15.1015C30.2121 12.395 31.8803 9.07467 34.5216 9.07467C34.9942 9.07467 35.7727 9.32579 36.2732 9.63271Z" fill="white"/>
<path d="M13.1036 8.26551C12.6032 8.40502 11.7969 8.99096 11.2408 9.60481C9.15559 11.9486 9.79506 16.2176 12.4364 17.5848C13.6041 18.1987 15.7171 18.115 16.8293 17.4453C20.1934 15.3805 19.4984 9.26998 15.7727 8.2376C14.6328 7.90278 14.2714 7.93068 13.1036 8.26551ZM16.2732 9.63271C17.8858 10.6372 18.4696 13.1484 17.5521 15.1015C16.3844 17.529 12.6588 17.529 11.4911 15.1015C10.2121 12.395 11.8803 9.07467 14.5216 9.07467C14.9942 9.07467 15.7727 9.32579 16.2732 9.63271Z" fill="white"/>
<path d="M37.3632 19.6615C36.9684 19.7492 36.5954 19.9467 36.5296 20.0563C36.4419 20.188 32.2302 20.2757 24.9474 20.2757C15.2298 20.2538 13.4311 20.2099 13.0801 19.9467C12.8388 19.7712 12.2685 19.6176 11.8078 19.6176C11.1059 19.6176 10.7987 19.7712 9.98712 20.6047C9.13162 21.4383 9 21.7015 9 22.4912C9 23.2151 9.13162 23.5222 9.65808 24.0048L10.3162 24.619V28.4359V32.2527L11.413 33.3276L12.5098 34.4025L12.5536 38.5703C12.6194 42.3433 12.6633 42.7601 13.0143 42.8259C13.3653 42.8917 13.3872 42.5846 13.3872 38.5484V34.1831L12.2904 33.1082L11.1936 32.0334V28.2385C11.1936 25.1674 11.2594 24.4435 11.5007 24.4435C11.6543 24.4435 12.2246 24.0706 12.7291 23.61C13.4311 22.9958 13.6943 22.579 13.804 21.9209L13.9356 21.0435L17.7305 20.9776C19.7925 20.9557 21.5035 20.9776 21.5035 21.0215C21.5035 21.0873 20.9551 21.877 20.297 22.8203L19.0905 24.4874L19.1344 33.6347C19.2002 42.1239 19.2222 42.7601 19.5951 42.8259C19.946 42.8917 19.968 42.3433 19.968 33.7882V24.6629L21.328 22.7983L22.688 20.9338H24.9255H27.163L28.4353 22.6228L29.7295 24.3338L29.8392 33.547C29.9488 42.08 29.9708 42.7601 30.3437 42.8259C30.6947 42.8917 30.7166 42.3433 30.7166 33.5908V24.3119L29.4882 22.6667L28.2817 21.0435L31.8573 20.9776C33.8096 20.9557 35.5425 20.9776 35.6961 21.0215C35.8496 21.0873 35.9812 21.3944 35.9812 21.7015C35.9812 22.3157 37.4948 24.1145 38.1968 24.3338C38.5916 24.4655 38.6135 24.7287 38.6135 28.2604V32.0334L37.5168 33.1082L36.42 34.205L36.4638 38.4825C36.5296 42.3433 36.5735 42.7601 36.9245 42.8259C37.2755 42.8917 37.2974 42.5846 37.2974 38.7677V34.6218L38.3942 33.547L39.491 32.4721V28.5894V24.7068L40.2807 23.9171C40.9826 23.2151 41.0704 23.0177 40.9607 22.3157C40.8071 21.4164 39.5568 19.9686 38.6355 19.6615C38.3064 19.5518 37.758 19.5518 37.3632 19.6615ZM12.7291 20.7144C13.3653 21.3506 13.2775 21.7673 12.2027 22.8203C11.1936 23.8293 10.8426 23.9609 10.2723 23.5003C9.48259 22.8861 9.57034 22.2719 10.6013 21.2628C11.6762 20.166 12.071 20.0563 12.7291 20.7144ZM39.2936 21.1312C40.2807 22.1183 40.4123 22.9299 39.6665 23.4345C38.9645 23.939 38.7232 23.8732 37.7361 22.9958C36.7051 22.0525 36.5516 21.1751 37.3413 20.6267C38.0651 20.1221 38.3503 20.188 39.2936 21.1312Z" fill="white"/>
</svg>
