<svg width="50" height="50" viewBox="0 0 50 50" fill="none" xmlns="http://www.w3.org/2000/svg">
<path d="M10.9972 9.36593C10.3752 9.60817 9.65983 9.94126 9.41101 10.1229C8.04251 11.2433 7.54487 14.7558 8.47794 16.6938C9.90865 19.6007 14.6362 19.8127 16.378 17.0269C16.8134 16.3304 17 15.5129 17 14.0897C17 11.637 16.2846 10.3652 14.4185 9.54761C12.8634 8.85116 12.5524 8.85116 10.9972 9.36593ZM14.0453 10.6377C17.1244 12.0306 16.4091 17.2994 13.0811 17.905C11.9303 18.117 10.4374 17.4811 9.72204 16.4516C8.94448 15.3917 9.06889 12.5454 9.87755 11.5461C11.0283 10.1229 12.3657 9.85042 14.0453 10.6377Z" fill="white"/>
<path d="M33.9972 9.36593C33.3752 9.60817 32.6598 9.94126 32.411 10.1229C31.0425 11.2433 30.5449 14.7558 31.4779 16.6938C32.9087 19.6007 37.6362 19.8127 39.378 17.0269C39.8134 16.3304 40 15.5129 40 14.0897C40 11.637 39.2846 10.3652 37.4185 9.54761C35.8634 8.85116 35.5524 8.85116 33.9972 9.36593ZM37.0453 10.6377C40.1244 12.0306 39.4091 17.2994 36.0811 17.905C34.9303 18.117 33.4374 17.4811 32.722 16.4516C31.9445 15.3917 32.0689 12.5454 32.8776 11.5461C34.0283 10.1229 35.3657 9.85042 37.0453 10.6377Z" fill="white"/>
<path d="M23.1311 16.5899C22.0927 17.7131 20.1007 19.0482 17.3033 20.4469C15.1205 21.5701 15.0781 21.5701 12.747 21.676C10.6914 21.7608 10.3099 21.8456 9.63179 22.3118C8.12715 23.329 8 23.8588 8 28.4999V32.6111L8.95364 33.5436L9.90728 34.476L9.94967 38.0787C10.0132 41.1303 10.0556 41.7025 10.3311 41.7025C10.6066 41.7025 10.649 41.1091 10.7126 37.8879L10.755 34.0734L9.80132 33.1197L8.84768 32.1873V28.2244C8.84768 24.5369 8.86887 24.2403 9.29272 23.7105C10.0344 22.7568 10.755 22.5237 12.9377 22.5237C14.8874 22.5237 14.951 22.5025 17.1126 21.4641C19.4861 20.2985 21.9656 18.7727 22.898 17.9038L23.4702 17.3528V18.6456C23.4702 19.9171 23.449 19.9595 22.4954 20.8071C21.1391 21.9939 19.6344 22.9687 17.6424 23.9224C16.7099 24.3886 15.8834 24.8336 15.7987 24.9608C15.6079 25.2151 15.5656 40.982 15.7563 41.4694C15.8199 41.6601 16.0106 41.8085 16.1801 41.8085C16.4344 41.8085 16.4768 40.4734 16.4768 33.586V25.3634L17.6424 24.876C19.1258 24.2615 21.6901 22.6085 22.9404 21.4429L23.8728 20.574L24.996 21.5277C26.3947 22.7144 28.2808 23.9224 29.9974 24.7277L31.3113 25.3634L31.3536 33.5224C31.4172 41.1091 31.4384 41.7025 31.7987 41.7661C32.1377 41.8297 32.1589 41.3211 32.1589 33.3317V24.8336L30.7391 24.1979C28.9377 23.3926 26.1616 21.5489 25.102 20.4469C24.3603 19.684 24.2967 19.5356 24.3603 18.5396L24.4238 17.48L25.8013 18.5184C26.5642 19.0906 28.4715 20.2138 30.0609 21.0403L32.9642 22.5237H35.0411C36.7788 22.5237 37.2662 22.6085 37.8384 22.9475C38.9828 23.6469 39.1523 24.3674 39.1523 28.5211V32.1873L38.1987 33.1197L37.245 34.0522V37.9515C37.245 41.533 37.2662 41.8297 37.6265 41.7661C37.9444 41.7025 37.9868 41.3211 38.0503 37.9727L38.0927 34.2641L39.0464 33.3317L40 32.3992V28.627C40 23.8588 39.7245 23.0323 37.8384 22.0787C37.2238 21.7608 36.5881 21.676 35.0623 21.676C33.155 21.676 33.0278 21.6548 31.1205 20.7224C28.4927 19.4509 26.3523 18.0522 25.0384 16.7595L23.9576 15.6999L23.1311 16.5899Z" fill="white"/>
</svg>
