<svg width="50" height="50" viewBox="0 0 50 50" fill="none" xmlns="http://www.w3.org/2000/svg">
<path d="M9.53035 11.1749C9.16971 11.7477 9.89099 11.8113 17.0189 11.8325C23.9347 11.8325 24.3377 11.8537 23.8498 12.1719C23.0437 12.7023 16.8492 18.8756 16.8492 19.1301C16.8492 19.512 17.9523 20.4666 18.8009 20.8061C20.4344 21.5061 21.9193 21.1243 23.277 19.7029L24.1044 18.8544L25.25 19.4696C25.8864 19.7878 26.7349 20.1272 27.1168 20.1909C28.1351 20.3818 36.3661 28.634 36.3661 29.4614C36.3661 30.0554 35.5175 30.9039 34.9236 30.9039C34.7538 30.9039 33.8416 30.1402 32.887 29.2068C31.9324 28.2734 31.0202 27.5097 30.8929 27.5097C30.2777 27.5097 30.7656 28.3583 32.3354 29.9705C33.2689 30.9252 34.0326 31.8586 34.0326 32.0495C34.0326 32.5586 33.0779 33.4496 32.5264 33.4496C32.2506 33.4496 31.402 32.8132 30.2989 31.7101C28.92 30.3736 28.4533 30.0342 28.2623 30.2251C28.0714 30.416 28.4108 30.8827 29.7473 32.2616C31.6142 34.1497 31.8475 34.7437 31.0626 35.465C30.2777 36.165 29.6413 35.9529 28.0714 34.383C26.8622 33.1951 26.6077 32.8132 26.6077 32.2616C26.6077 31.3282 25.6954 30.2675 24.9105 30.2675C24.4014 30.2675 24.2953 30.1614 24.1893 29.5462C24.0195 28.6765 23.0013 27.7218 22.2376 27.7218C21.8345 27.7218 21.7284 27.6158 21.7284 27.2127C21.7284 26.449 20.7738 25.4307 19.904 25.261C19.2888 25.1549 19.1827 25.0489 19.1827 24.5397C19.1827 23.67 18.122 22.8426 17.0401 22.8426C16.2976 22.8426 16.0218 22.9911 15.0248 23.9457C13.9429 24.964 13.858 25.0064 13.4974 24.6882C12.9458 24.1791 9 24.1579 9 24.6458C9 24.9004 9.33942 24.964 10.7608 24.964C11.9275 24.9852 12.6276 25.0701 12.9034 25.2822C13.2852 25.5792 13.2852 25.6004 12.7337 26.2369C11.9488 27.1915 11.97 28.3795 12.7973 29.228C13.158 29.5675 13.6459 29.8432 13.9429 29.8432C14.3672 29.8432 14.5156 29.9705 14.6217 30.4797C14.8339 31.4131 15.5127 32.1344 16.3188 32.3041C16.9128 32.4101 17.0613 32.5374 17.0613 32.9193C17.0613 33.6406 17.825 34.4679 18.7797 34.7437C19.4373 34.9558 19.607 35.1043 19.607 35.5074C19.607 35.8044 19.8828 36.3135 20.2222 36.6529C21.0284 37.4591 22.1951 37.5015 23.1073 36.759L23.7438 36.2287L25.1439 37.6076C26.2894 38.7531 26.6925 39.0077 27.4138 39.1138C28.1987 39.2198 28.3684 39.1562 29.0473 38.4774C29.514 38.0106 29.7898 37.5227 29.7898 37.1833C29.7898 36.7378 29.8958 36.6317 30.3201 36.6317C31.1475 36.6317 31.8899 36.0377 32.1445 35.1255C32.3354 34.5103 32.5264 34.2982 32.9931 34.1921C33.7992 34.0012 34.669 33.089 34.669 32.3889C34.669 31.901 34.7963 31.7737 35.5175 31.5616C37.342 31.01 37.6814 29.1856 36.2388 27.7006C35.4539 26.8945 35.4539 26.8733 35.8358 26.449C36.1752 26.0671 36.4722 26.0247 38.636 26.0247C40.8423 26.0247 41.0544 25.9823 40.9908 25.6429C40.9271 25.3246 40.6089 25.2822 38.5087 25.2186C36.1115 25.1549 36.0691 25.1762 35.4751 25.7489L34.8599 26.3217L32.0172 23.479C30.4474 21.9092 29.1533 20.5515 29.1533 20.4666C29.1533 20.3606 29.4291 20.2969 29.7685 20.2969C30.4898 20.2969 32.9294 19.0877 33.2689 18.5574C33.6083 18.0058 33.2264 17.8149 32.59 18.2392C30.9565 19.2574 30.108 19.5544 28.623 19.5332C27.1592 19.5332 26.2258 19.215 24.5499 18.1543C24.1044 17.8785 23.9983 17.9422 23.0649 18.8544C21.7921 20.0848 21.3466 20.2969 20.1586 20.2969C19.4373 20.2969 19.0555 20.1696 18.5463 19.7241L17.8675 19.1726L20.9223 16.1178C23.1073 13.9115 24.2741 12.9144 25.1227 12.4902L26.2894 11.9174L33.6719 11.8537C40.5028 11.7901 41.0544 11.7689 40.9908 11.4295C40.9271 11.09 39.8028 11.0688 25.2924 11.0052C14.9824 10.984 9.61521 11.0264 9.53035 11.1749ZM18.016 24.0094C18.313 24.2852 18.5463 24.6882 18.5463 24.8792C18.5463 25.0701 17.719 26.0671 16.7007 27.1066C14.7702 29.1007 14.1126 29.3977 13.3701 28.6553C12.6488 27.9552 12.9458 27.1915 14.5793 25.5156C16.7431 23.3093 17.1462 23.1184 18.016 24.0094ZM20.4132 26.3641C20.7314 26.5763 20.8799 26.8945 20.8799 27.34C20.8799 27.8915 20.5829 28.3158 19.1191 29.7796C17.2098 31.6889 16.5946 31.9222 15.7885 31.1161C15.0248 30.3524 15.2581 29.8857 17.231 27.8915C19.1615 25.9611 19.5646 25.7701 20.4132 26.3641ZM23.1285 29.1007C23.6589 29.9069 23.3831 30.4584 21.4102 32.3677C19.7979 33.9375 19.5434 34.1073 19.0342 34.0012C18.313 33.8103 17.9099 33.3223 17.9099 32.6223C17.9099 32.2192 18.3978 31.604 19.6494 30.3312C21.1344 28.8462 21.5163 28.5704 22.0891 28.5704C22.5982 28.5704 22.874 28.7189 23.1285 29.1007ZM25.2924 31.2646C26.2682 32.1131 26.1409 32.4738 24.1468 34.5103C22.3224 36.3984 21.8981 36.6317 20.9859 36.2923C20.795 36.2075 20.5404 35.9105 20.4344 35.6347C20.1586 34.9134 20.5617 34.2558 22.3012 32.5799C24.1468 30.7979 24.5287 30.6282 25.2924 31.2646ZM27.6047 35.1892C29.0261 36.5893 29.2382 37.2257 28.5806 37.947C27.9229 38.6895 27.1168 38.4349 25.6318 37.0136L24.2529 35.6983L25.1651 34.7861C25.653 34.277 26.0985 33.8739 26.1622 33.8739C26.2258 33.8739 26.8834 34.4679 27.6047 35.1892Z" fill="white"/>
</svg>
