<svg width="138.079346" height="103.310059" viewBox="0 0 138.079 103.31" fill="none" xmlns="http://www.w3.org/2000/svg" xmlns:xlink="http://www.w3.org/1999/xlink">
	<desc>
			Created with Pixso.
	</desc>
	<defs/>
	<path id="Shvei prom" d="M26.8648 95.1167C26.4323 95.1167 26.1155 95.0493 25.9147 94.9148C25.7292 94.7949 25.6134 94.6304 25.567 94.4209C25.5207 94.2114 25.4975 93.9871 25.4975 93.7476L25.4975 80.3469C25.4975 80.0925 25.5207 79.8679 25.567 79.6733Q25.6114 79.5229 25.6982 79.4033Q25.7928 79.2732 25.9379 79.1797C26.1387 79.0598 26.4554 79 26.888 79C27.3206 79 27.6296 79.0674 27.815 79.2019C28.0159 79.3218 28.1395 79.4863 28.1858 79.6958Q28.2785 79.9875 28.2785 80.3691L28.2785 85.4421C28.5875 85.0981 28.9815 84.7837 29.4604 84.4995Q30.202 84.0505 31.2449 84.0505C32.1874 84.0505 33.0294 84.2749 33.771 84.7239Q34.1858 84.9668 34.5362 85.2812Q35.1254 85.8103 35.5323 86.542C35.9648 87.3203 36.1812 88.2332 36.1812 89.2805L36.1812 93.77C36.1812 94.0093 36.158 94.2339 36.1116 94.4434C36.0653 94.6379 35.9417 94.7949 35.7408 94.9148C35.5554 95.0344 35.2465 95.0942 34.8138 95.0942C34.3812 95.0942 34.0645 95.0344 33.8636 94.9148C33.6628 94.7949 33.5392 94.6379 33.4929 94.4434C33.4465 94.2339 33.4233 93.9944 33.4233 93.7251L33.4233 89.2581C33.4233 88.7344 33.3306 88.2781 33.1453 87.8889C32.9598 87.4998 32.6818 87.2004 32.311 86.991C31.9556 86.7666 31.5076 86.6543 30.9668 86.6543C30.2407 86.6543 29.6304 86.8638 29.136 87.283C28.6416 87.687 28.3558 88.2107 28.2785 88.854L28.2785 93.77C28.2785 94.0093 28.2476 94.2339 28.1858 94.4434C28.1395 94.6528 28.0159 94.8174 27.815 94.9373C27.6296 95.0569 27.3129 95.1167 26.8648 95.1167ZM63.579 81.8955C63.131 81.8955 62.7988 81.8357 62.5825 81.7161C62.3817 81.5813 62.2503 81.4019 62.1885 81.1772Q62.119 80.8406 62.119 80.4365Q62.119 80.01 62.1885 79.6958C62.2503 79.4863 62.3894 79.3218 62.6057 79.2019C62.822 79.0674 63.1542 79 63.6022 79C64.0657 79 64.3979 79.0674 64.5988 79.2019C64.7996 79.3367 64.9309 79.5164 64.9927 79.7407C65.0545 79.9502 65.0854 80.1973 65.0854 80.4814C65.0854 80.7358 65.0545 80.9753 64.9927 81.1997C64.9309 81.4243 64.7996 81.5964 64.5988 81.7161C64.3979 81.8357 64.058 81.8955 63.579 81.8955ZM17.5295 99.8083C16.8343 99.8083 16.2009 99.7261 15.6292 99.5613Q14.7949 99.3145 14.146 98.9329C13.7289 98.6785 13.3735 98.4165 13.08 98.1472Q12.6396 97.7432 12.431 97.4065C12.2302 97.1372 12.0989 96.8977 12.0371 96.6882C12.0124 96.6045 12 96.5217 12 96.4404C12 96.3184 12.0278 96.199 12.0834 96.082Q12.2457 95.7678 12.6628 95.4312C12.9409 95.1917 13.1958 95.072 13.4276 95.072C13.6748 95.0571 13.9066 95.1245 14.1228 95.2742Q14.4705 95.4985 14.7949 95.9026C15.1657 96.3813 15.5828 96.7256 16.0463 96.9351C16.5098 97.1296 16.9733 97.2271 17.4368 97.2271C18.0394 97.2271 18.5647 97.1521 19.0128 97.0024C19.4608 96.8379 19.8084 96.5984 20.0556 96.2842C20.3182 95.97 20.4496 95.5659 20.4496 95.072C20.4496 94.668 20.3182 92.4683 20.0556 92.2139C19.8084 91.9446 19.4763 91.72 19.0591 91.5405C18.642 91.3459 18.1707 91.1738 17.6454 91.0242Q16.8806 90.7773 16.0927 90.4854C15.7219 90.3657 15.3511 90.2236 14.9803 90.0588C14.6095 89.8794 14.2619 89.6772 13.9374 89.4529C13.6284 89.2285 13.3503 88.9666 13.1031 88.6672C12.8714 88.353 12.686 87.9939 12.5469 87.5898Q12.3384 86.9836 12.3384 86.1755C12.3384 85.3228 12.5546 82.7039 12.9872 82.0603Q13.12 81.8584 13.274 81.6743L13.274 81.6741Q13.8732 80.958 14.7949 80.5115Q15.9537 79.928 17.4368 79.928Q18.387 79.928 19.1286 80.1077Q19.8934 80.2646 20.4264 80.5339C20.7972 80.6987 21.0985 80.8708 21.3303 81.0503C21.5775 81.2148 21.7551 81.3572 21.8633 81.4768C22.2186 81.821 22.4117 82.1128 22.4426 82.3523Q22.4513 82.3943 22.4513 82.4402Q22.4513 82.762 22.0255 83.2725C21.701 83.6765 21.3843 83.9011 21.0753 83.946Q20.635 83.9907 20.0788 83.5869C19.8316 83.3325 19.5844 83.1304 19.3372 82.9807C19.09 82.8162 18.8119 82.6963 18.5029 82.6216Q18.0626 82.5093 17.4137 82.5093C17.1047 82.5093 16.8034 82.5542 16.5098 82.644C16.2318 82.7188 15.9922 82.8386 15.7914 83.0032C15.5906 83.1528 15.4283 83.3398 15.3047 83.5645C15.1966 83.7888 15.1425 85.9138 15.1425 86.198Q15.1425 86.6692 15.3539 87.0085L15.3539 87.0085Q15.4044 87.0898 15.467 87.1633Q15.8146 87.5225 16.394 87.7693C16.7802 87.9189 17.2128 88.0613 17.6918 88.1958C18.1707 88.3306 18.6574 88.4727 19.1518 88.6223C19.6616 88.7869 20.1638 88.9814 20.6581 89.2061Q21.3998 89.5427 21.9791 90.0588C22.3654 90.3882 22.6744 90.8071 22.9061 91.3159C23.1379 91.8098 23.2538 94.2864 23.2538 95.0046C23.2538 95.8276 23.0916 96.5461 22.7671 97.1597C22.4426 97.7732 22.0023 98.2744 21.4461 98.6636C20.8899 99.0525 20.2719 99.3369 19.5921 99.5166Q18.86 99.7261 18.116 99.7852Q17.8237 99.8083 17.5295 99.8083ZM42.4534 93.134C42.129 93.134 41.8586 93.0818 41.6423 92.9771C41.426 92.8723 41.256 92.7002 41.1324 92.4607L36.9146 83.9084Q36.6776 83.4495 36.6776 83.1155C36.6776 83.0115 36.6948 82.9167 36.7292 82.8311Q36.8914 82.427 37.5635 82.1128Q38.2588 81.7761 38.6759 81.8884C38.954 81.9631 39.2012 82.24 39.4175 82.7188L42.4534 89.6101L45.443 82.8535C45.6593 82.3596 45.9065 82.053 46.1846 81.9331C46.4627 81.7986 46.8644 81.8584 47.3897 82.1128C47.915 82.3672 48.1931 82.6516 48.224 82.9658C48.2281 83.0056 48.2302 83.0464 48.2302 83.0879C48.2302 83.3577 48.1431 83.6611 47.9691 83.9983L43.7744 92.4607C43.6508 92.6853 43.4808 92.8499 43.2645 92.9546C43.0483 93.0742 42.7779 93.134 42.4534 93.134ZM87.6791 93.2461C87.262 93.2461 86.953 93.179 86.7521 93.0442Q86.5995 92.9456 86.5098 92.8066Q86.4359 92.6921 86.4045 92.5503C86.3582 92.3408 86.335 92.1089 86.335 91.8545L86.335 83.5269C86.335 83.2573 86.3582 83.0254 86.4045 82.8308C86.4509 82.6213 86.5668 82.4644 86.7521 82.3596C86.953 82.2397 87.2697 82.1799 87.7023 82.1799C88.1195 82.1799 88.4208 82.2324 88.6061 82.3372C88.807 82.4419 88.9306 82.5764 88.9769 82.7412C89.0388 82.8909 89.0696 83.0405 89.0696 83.1899L88.8843 83.594C88.9615 83.4744 89.0696 83.3323 89.2087 83.1677C89.3477 82.988 89.5331 82.8159 89.7649 82.6514C89.9966 82.4717 90.2747 82.3296 90.5992 82.2249C90.9236 82.1052 91.3099 82.0452 91.7579 82.0452C91.9434 82.0452 92.1365 82.0676 92.3373 82.1125C92.5536 82.1426 92.7622 82.1948 92.963 82.2698C93.1793 82.3296 93.3724 82.4119 93.5424 82.5166C93.7123 82.6213 93.8437 82.7485 93.9364 82.8982C94.0291 83.033 94.0754 83.1899 94.0754 83.3696C94.0754 83.8484 93.9518 84.2524 93.7047 84.5818C93.4575 84.9109 93.1639 85.0757 92.824 85.0757C92.5922 85.0757 92.4223 85.0532 92.3141 85.0083C92.206 84.9634 92.1133 84.9109 92.036 84.8511C91.9742 84.7913 91.8738 84.7388 91.7347 84.6941C91.6111 84.6492 91.4103 84.6267 91.1322 84.6267C90.9005 84.6267 90.661 84.6641 90.4138 84.7388C90.1821 84.8137 89.9658 84.926 89.7649 85.0757C89.564 85.2253 89.4018 85.4197 89.2782 85.6592C89.1546 85.8838 89.0928 86.1455 89.0928 86.4448L89.0928 91.8994C89.0928 92.1538 89.0696 92.3857 89.0233 92.5952C88.9769 92.7898 88.8533 92.947 88.6525 93.0667C88.4517 93.1863 88.1272 93.2461 87.6791 93.2461ZM100.808 95.2515C100.066 95.2515 99.3402 95.1167 98.6295 94.8474C97.9343 94.563 97.3008 94.1665 96.7291 93.6577C96.173 93.1489 95.7249 92.5503 95.385 91.8621Q95.3354 91.7568 95.291 91.6497Q94.8983 90.7039 94.8983 89.595C94.8983 88.8018 95.0529 88.061 95.3618 87.3726Q95.6011 86.8398 95.9329 86.3726Q96.244 85.9346 96.6365 85.5544C97.1772 85.0308 97.7952 84.6267 98.4905 84.3423C99.2012 84.043 99.9582 83.8933 100.762 83.8933C101.843 83.8933 102.824 84.1477 103.705 84.6565C104.585 85.1504 105.288 85.8237 105.814 86.6768C106.339 87.5298 106.602 88.4949 106.602 89.5725Q106.602 90.8518 106.115 91.9065L106.115 91.907C105.791 92.5952 105.35 93.1938 104.794 93.7026C104.238 94.1965 103.612 94.5781 102.917 94.8474Q102.356 95.0696 101.775 95.1694L101.774 95.1697Q101.298 95.2515 100.808 95.2515ZM55.1187 95.2515C54.1145 95.2515 53.2338 95.0942 52.4768 94.78C51.7352 94.4658 51.1094 94.0393 50.5996 93.5005C50.1052 92.947 49.7267 92.3333 49.4641 91.6599Q49.2866 91.1658 49.1941 90.6562Q49.0933 90.1011 49.0933 89.5276C49.0933 88.4502 49.3481 87.4924 49.858 86.6543C50.3679 85.8164 51.0708 85.158 51.9669 84.679Q53.3342 83.9607 55.0955 83.9607C55.9299 83.9607 56.6637 84.0879 57.2972 84.3423Q58.2473 84.7239 58.873 85.3525C59.3057 85.7563 59.6301 86.2053 59.8464 86.6992C60.0781 87.1931 60.194 87.6719 60.194 88.1357C60.194 88.929 59.9932 89.5051 59.5915 89.8643C59.2053 90.2234 58.7186 90.4028 58.1315 90.4028L52.0133 90.4028C52.0287 90.9116 52.191 91.3533 52.4999 91.7273C52.8244 92.1013 53.2261 92.3933 53.705 92.6028C54.1995 92.7974 54.7016 92.8945 55.2114 92.8945C55.5977 92.8945 55.9376 92.8721 56.2311 92.8271C56.5401 92.7822 56.8028 92.73 57.019 92.6702C57.2354 92.5952 57.4208 92.5205 57.5753 92.4456C57.7452 92.3708 57.8997 92.3035 58.0388 92.2437C58.1778 92.1838 58.3091 92.1462 58.4327 92.1313C58.6027 92.1165 58.7726 92.1538 58.9426 92.2437C59.1125 92.3333 59.2516 92.4905 59.3597 92.7148C59.4525 92.8645 59.5142 93.0068 59.5451 93.1414C59.5915 93.2612 59.6147 93.3809 59.6147 93.5005C59.6147 93.7998 59.4293 94.0842 59.0585 94.3535C58.6877 94.6079 58.1624 94.8174 57.4825 94.9822C56.8182 95.1616 56.0303 95.2515 55.1187 95.2515ZM79.1166 94.9597C78.3595 94.9597 77.6797 94.825 77.0771 94.5557C76.6251 94.3367 76.2234 94.0557 75.8721 93.7124L75.8721 98.2817C75.8751 98.3325 75.8767 98.532 75.8767 98.8196C75.8767 99.9712 75.852 102.541 75.8026 102.696C75.7562 102.906 75.6326 103.07 75.4318 103.19C75.2309 103.31 74.4317 103.31 74.4317 103.31C74.4317 103.31 73.7554 103.31 73.5546 103.19C73.3537 103.07 73.2301 102.913 73.1838 102.719C73.1375 102.524 73.1143 98.5586 73.1143 98.3042L73.1143 85.3972C73.1143 85.1428 73.1375 84.9185 73.1838 84.7239Q73.2064 84.6289 73.2511 84.5459Q73.3438 84.3738 73.5314 84.2524C73.7322 84.1179 74.0413 84.0505 74.4584 84.0505C74.8601 84.0505 75.1768 84.1104 75.4086 84.23C75.6403 84.3499 75.7948 84.5518 75.8721 84.8362L75.8721 85.3438C76.2343 84.9795 76.6514 84.6831 77.1235 84.4546C77.7106 84.1702 78.3749 84.0281 79.1166 84.0281C79.8273 84.0281 80.4916 84.1702 81.1096 84.4546Q81.5452 84.6501 81.9322 84.9165L81.9324 84.9165Q82.3893 85.2312 82.7782 85.6443C83.2726 86.1531 83.6588 86.7441 83.937 87.4175C84.215 88.0759 84.3541 88.7869 84.3541 89.55C84.3541 90.3281 84.215 91.0464 83.937 91.7048C83.6588 92.3633 83.2803 92.9395 82.8014 93.4333C82.3224 93.9121 81.7662 94.2861 81.1328 94.5557C80.4993 94.825 79.8273 94.9597 79.1166 94.9597ZM109.767 96.9648C109.35 96.9648 109.041 96.905 108.84 96.7854C108.655 96.6655 108.539 96.501 108.493 96.2915C108.446 96.082 108.423 95.8574 108.423 95.6182L108.423 85.3525C108.423 85.113 108.446 84.896 108.493 84.7014C108.539 84.5068 108.663 84.3499 108.863 84.23C109.064 84.1104 109.381 84.0505 109.814 84.0505C110.262 84.0505 110.586 84.1404 110.787 84.3198C111.003 84.4995 111.111 84.7837 111.111 85.1729L110.903 85.8013C110.98 85.6367 111.111 85.4573 111.297 85.2627C111.482 85.0681 111.706 84.8735 111.969 84.679C112.247 84.4844 112.556 84.3274 112.896 84.2078C113.236 84.0879 113.591 84.0281 113.962 84.0281C114.472 84.0281 114.935 84.1104 115.352 84.2749C115.785 84.4397 116.164 84.679 116.488 84.9932C116.828 85.3076 117.121 85.6892 117.369 86.1382C117.631 85.749 117.925 85.3972 118.249 85.083C118.574 84.7539 118.952 84.4995 119.385 84.3198Q120.034 84.0281 120.845 84.0281C121.741 84.0281 122.49 84.2451 123.093 84.679C123.711 85.113 124.174 85.7341 124.483 86.542C124.808 87.3352 124.97 88.2854 124.97 89.3928L124.97 97.4885C124.97 97.7429 124.939 97.9751 124.877 98.1846C124.831 98.3789 124.707 98.5361 124.507 98.6558C124.321 98.7756 124.012 98.8354 123.579 98.8354C123.147 98.8354 122.83 98.7681 122.629 98.6333C122.428 98.5137 122.305 98.3567 122.259 98.1621C122.212 97.9526 122.189 97.7207 122.189 97.4663L122.189 89.3704C122.189 88.8167 122.12 88.3379 121.98 87.9338C121.841 87.5298 121.633 87.2156 121.355 86.991C121.092 86.7666 120.744 86.6543 120.312 86.6543C119.848 86.6543 119.447 86.7666 119.107 86.991C118.782 87.2004 118.527 87.5073 118.342 87.9114C118.157 88.3154 118.064 88.8093 118.064 89.3928L118.064 93.77C118.064 94.0244 118.025 94.2637 117.948 94.4883C117.871 94.6978 117.716 94.855 117.484 94.9597C117.268 95.0793 116.951 95.1243 116.534 95.0942C116.148 95.0793 115.862 95.0046 115.677 94.8699C115.507 94.7351 115.399 94.5706 115.352 94.376C115.321 94.1665 115.306 93.9495 115.306 93.7251L115.306 89.3704C115.306 88.8167 115.237 88.3379 115.097 87.9338C114.958 87.5149 114.75 87.2004 114.472 86.991C114.209 86.7666 113.854 86.6543 113.406 86.6543C112.927 86.6543 112.517 86.7742 112.177 87.0134C111.853 87.2529 111.606 87.5747 111.436 87.9788C111.266 88.3828 111.181 88.8467 111.181 89.3704L111.181 95.6406C111.181 95.8799 111.15 96.1045 111.088 96.314C111.042 96.5234 110.918 96.6807 110.717 96.7854C110.532 96.905 110.215 96.9648 109.767 96.9648ZM63.579 95.1167C63.1619 95.1167 62.8529 95.0493 62.652 94.9148C62.4512 94.7949 62.3276 94.6379 62.2812 94.4434C62.2349 94.2339 62.2117 94.002 62.2117 93.7476L62.2117 85.3972C62.2117 85.158 62.2349 84.9409 62.2812 84.7463C62.343 84.5369 62.4666 84.3723 62.652 84.2524C62.8529 84.1328 63.1696 84.073 63.6022 84.073C64.0348 84.073 64.3438 84.1328 64.5292 84.2524C64.73 84.3723 64.8536 84.5369 64.9 84.7463C64.9464 84.9558 64.9695 85.1877 64.9695 85.4421L64.9695 93.77C64.9695 94.0244 64.9464 94.2563 64.9 94.4658C64.8536 94.6604 64.73 94.8174 64.5292 94.9373C64.3438 95.0569 64.0271 95.1167 63.579 95.1167ZM52.0133 88.8093L56.7642 88.8093C57.0268 88.8093 57.2277 88.7717 57.3667 88.697C57.5057 88.6072 57.5753 88.4277 57.5753 88.1582C57.5753 87.8142 57.4671 87.5073 57.2508 87.238C57.0345 86.9536 56.741 86.7366 56.3702 86.5869C55.9994 86.4224 55.5668 86.3401 55.0724 86.3401C54.5007 86.3401 53.9832 86.4524 53.5197 86.6768C53.0562 86.8862 52.6854 87.178 52.4072 87.5522C52.1446 87.9263 52.0133 88.3452 52.0133 88.8093ZM100.762 92.6028C101.271 92.6028 101.758 92.4829 102.222 92.2437C102.701 91.9893 103.087 91.6301 103.38 91.166C103.689 90.7021 103.844 90.156 103.844 89.5276C103.844 88.9438 103.705 88.4277 103.427 87.9788C103.164 87.5298 102.801 87.178 102.338 86.9236C101.874 86.6692 101.341 86.542 100.738 86.542C100.167 86.542 99.6492 86.6768 99.1857 86.946C98.7222 87.2004 98.3514 87.5596 98.0733 88.0237C97.8107 88.4724 97.6793 88.9812 97.6793 89.55Q97.6793 90.4111 98.0467 91.0662Q98.0815 91.1284 98.1196 91.1885C98.4132 91.6375 98.7917 91.9893 99.2552 92.2437C99.7342 92.4829 100.236 92.6028 100.762 92.6028ZM78.7457 92.4456C79.2865 92.4456 79.7732 92.3259 80.2057 92.0864C80.6384 91.832 80.9783 91.4878 81.2255 91.054C81.4882 90.605 81.6194 90.1038 81.6194 89.55C81.6194 88.9812 81.4882 88.48 81.2255 88.0461C80.9783 87.6121 80.6384 87.2754 80.2057 87.0359C79.7732 86.7815 79.2865 86.6543 78.7457 86.6543C78.2205 86.6543 77.7415 86.7815 77.3089 87.0359C76.8763 87.2903 76.5287 87.6345 76.2661 88.0686C76.0188 88.4875 75.8952 88.9812 75.8952 89.55C75.8952 90.1038 76.0188 90.605 76.2661 91.054C76.5287 91.4878 76.8763 91.832 77.3089 92.0864C77.7415 92.3259 78.2205 92.4456 78.7457 92.4456Z" fill="#1E1E1E" fill-opacity="1.000000" fill-rule="evenodd"/>
	<path id="Vector" d="M65.0562 0.0688477C64.33 0.310059 63.9669 1.03345 63.939 2.26587C63.939 2.93579 64.2462 7.32959 64.6093 12.0452C65.0003 16.7605 65.3913 22.2529 65.4751 24.2356C65.5868 26.2183 65.8102 28.0132 65.9499 28.1741C66.4247 28.7366 67.2626 28.5759 67.4302 27.906C67.5978 27.3435 67.2347 18.2073 66.8436 11.8308L66.6481 8.96387L68.1005 8.96387L69.5249 8.96387L69.3853 10.3572C69.1339 12.7417 68.687 22.4941 68.687 25.4146C68.687 27.5847 68.7708 28.2544 69.1339 28.5225C70.0555 29.2725 70.279 28.3616 70.7538 21.6904C71.0052 18.1538 71.3962 12.7952 71.6196 9.76782C72.1782 2.29272 72.1503 1.11377 71.5358 0.577881C71.2565 0.310059 70.8097 0.122559 70.5862 0.122559C69.9438 0.122559 69.4969 0.73877 69.8042 1.19434C69.9718 1.40845 70.0835 2.34619 70.0835 3.28394C70.0835 4.91846 69.7762 5.93652 69.1339 6.33838C68.5194 6.74023 67.095 6.55273 66.5923 6.01685C66.0057 5.37378 65.6706 2.34619 66.1454 1.51562C66.6481 0.604736 66.0337 -0.252686 65.0562 0.0688477Z" fill="#1E1E1E" fill-opacity="1.000000" fill-rule="nonzero"/>
	<path id="Vector" d="M53.186 5.53467C53.0184 5.96338 54.5267 10.4912 54.9456 10.8933C55.3087 11.2415 56.0628 11.0005 56.2863 10.4646C56.37 10.2769 56.0349 8.99097 55.5321 7.65137C54.7501 5.4812 54.5825 5.21313 53.9681 5.21313C53.605 5.21313 53.2419 5.37402 53.186 5.53467Z" fill="#1E1E1E" fill-opacity="1.000000" fill-rule="nonzero"/>
	<path id="Vector" d="M80.7527 5.42749C80.222 5.74902 79.049 10.4109 79.3562 10.9468C79.6634 11.4558 80.2499 11.5093 80.6409 11.0271C81.1716 10.4109 82.0933 5.93652 81.7581 5.56152C81.423 5.15967 81.2554 5.13281 80.7527 5.42749Z" fill="#1E1E1E" fill-opacity="1.000000" fill-rule="nonzero"/>
	<path id="Vector" d="M88.4612 10.1428C87.5396 11.9646 87.5675 12.7148 88.5729 12.7148C89.4667 12.7148 91.1704 9.74097 90.7515 8.93701C90.1649 7.91895 89.4108 8.3208 88.4612 10.1428Z" fill="#1E1E1E" fill-opacity="1.000000" fill-rule="nonzero"/>
	<path id="Vector" d="M43.1872 9.09814C42.9359 9.3125 42.7962 9.6875 42.9079 9.92871C42.9917 10.1431 44.444 12.4741 46.1757 15.1265C47.8794 17.7788 50.4768 21.8245 51.9292 24.1018C54.9177 28.8174 55.3366 29.2996 55.979 28.7905C56.2024 28.603 56.3979 28.2278 56.3979 27.9331C56.3979 27.6384 55.2249 25.6558 53.8005 23.4856C52.376 21.3154 50.0579 17.7253 48.6335 15.5283C44.1647 8.50879 43.9971 8.29443 43.1872 9.09814Z" fill="#1E1E1E" fill-opacity="1.000000" fill-rule="nonzero"/>
	<path id="Vector" d="M55.8394 12.5811C55.5042 12.9561 55.7835 14.1082 56.7331 16.5195C57.0403 17.3501 58.2413 17.5913 58.5206 16.8945C58.6882 16.4927 57.6269 13.0901 57.152 12.5007C56.789 12.072 56.2583 12.0989 55.8394 12.5811Z" fill="#1E1E1E" fill-opacity="1.000000" fill-rule="nonzero"/>
	<path id="Vector" d="M94.8571 16.1978C93.8237 17.4036 92.902 18.5288 92.7903 18.7698C92.6227 19.2253 93.1813 19.9487 93.6841 19.9487C93.9913 19.9487 97.5663 16.1174 98.1249 15.1797C98.4042 14.751 97.8177 14.0544 97.2032 14.0544C96.9518 14.0544 95.8906 15.019 94.8571 16.1978Z" fill="#1E1E1E" fill-opacity="1.000000" fill-rule="nonzero"/>
	<path id="Vector" d="M36.0092 15.6353C35.7858 16.064 36.0372 16.4924 37.6012 18.2607C39.4725 20.3774 40.2825 20.7793 40.8411 19.9219C41.0924 19.5469 40.7573 19.0647 39.0815 17.2964C37.9643 16.0906 36.8751 15.1262 36.6796 15.1262C36.484 15.1262 36.1768 15.3672 36.0092 15.6353Z" fill="#1E1E1E" fill-opacity="1.000000" fill-rule="nonzero"/>
	<path id="Vector" d="M79.9985 15.448C79.2444 15.8499 79.021 16.1982 79.021 17.0554L79.021 17.8057L82.6519 17.8057L86.2827 17.8057L86.2827 16.8948C86.2827 15.5015 85.5286 15.1265 82.7915 15.1265C81.5626 15.1265 80.3058 15.2871 79.9985 15.448Z" fill="#1E1E1E" fill-opacity="1.000000" fill-rule="nonzero"/>
	<path id="Vector" d="M20.8434 19.6809C19.419 20.7524 19.6703 22.896 21.2903 23.646C23.7761 24.7981 25.8149 21.5295 23.6923 19.8416C22.6589 19.011 21.821 18.9575 20.8434 19.6809Z" fill="#1E1E1E" fill-opacity="1.000000" fill-rule="nonzero"/>
	<path id="Vector" d="M78.239 19.4666C77.9875 19.7078 77.9038 21.2349 77.9038 24.9055L77.9038 30.0227L73.7981 31.416C64.6372 34.5239 58.4927 35.8367 53.9401 35.7029C51.1192 35.6223 50.812 35.5688 49.5272 34.8186C47.7118 33.7202 46.6226 32.0054 46.427 29.8889L46.2595 28.2544L45.1981 28.2544L44.1089 28.2544L44.1089 26.647L44.1089 25.0396L42.9917 25.0396L41.8745 25.0396L41.8745 26.647L41.8745 28.2544L40.5618 28.2544L39.2212 28.2544L39.277 42.374C39.3329 58.1011 39.1932 57.1902 41.2321 57.1902C41.9583 57.1902 42.1538 57.2974 42.1538 57.7261C42.1538 58.0208 41.9583 58.262 41.7349 58.262C41.5114 58.262 41.3159 58.3423 41.288 58.4495C41.0925 59.8694 41.1483 60.2178 41.6231 60.325C42.07 60.4587 42.1538 60.7537 42.1538 62.4414L42.1538 64.4241L35.4227 64.4241L28.6917 64.4241L28.9151 63.6738C29.0547 63.272 29.1665 62.0396 29.1665 60.9412C29.1665 58.4226 28.5521 57.1365 26.2339 54.752C24.8094 53.3052 24.6419 53.0105 25.0329 52.7961C26.3456 52.0996 27.6304 50.0903 27.6304 48.7505C27.6304 47.0359 26.0383 44.8389 24.3905 44.3298L23.4968 44.0352L23.385 39.293C23.3013 34.9526 23.2454 34.4436 22.6309 33.2646C21.6813 31.3892 20.201 30.5317 17.9946 30.5317C15.8719 30.5317 14.28 31.416 13.3303 33.1575C12.7438 34.1755 12.688 34.7114 12.6042 39.1321L12.4924 44.0083L11.3753 44.4907C9.97876 45.0801 8.88953 46.6072 8.72192 48.188C8.52643 49.8491 9.42017 51.5906 10.9843 52.5552L12.1852 53.3052L10.1743 55.3416C7.80029 57.7261 6.9624 59.4675 6.73895 62.4683L6.5993 64.4241L3.75049 64.4241C1.34851 64.4241 0.845764 64.5044 0.454773 64.9062C-0.187622 65.5762 -0.131775 66.6479 0.51062 67.2104C0.985413 67.6123 1.54401 67.666 4.86768 67.5857C7.6048 67.532 8.72192 67.3979 8.88953 67.157C9.00122 66.9692 9.05713 65.9246 8.97333 64.8796C8.83368 62.6826 9.39227 60.0837 10.3698 58.5566C10.705 58.0208 12.4645 56.1453 14.252 54.377C16.0396 52.6086 17.6595 50.8672 17.855 50.5188L18.2181 49.8491L18.7208 50.8137C19.0001 51.3494 19.6983 52.1533 20.2569 52.5818L21.2624 53.3857L19.8938 54.6985C17.9946 56.4668 17.2405 57.967 17.2126 60.0034C17.1846 62.897 18.8604 65.4153 21.7093 66.7551L23.3013 67.5051L68.9663 67.5051L114.631 67.5051L116.084 66.8623C117.704 66.1655 119.296 64.6653 119.882 63.272C120.106 62.7898 120.357 61.584 120.469 60.6196C120.692 58.6638 121.474 57.2705 123.234 55.6362L124.183 54.752L125.803 56.4399C126.697 57.3777 127.73 58.7976 128.149 59.6016C128.792 60.9143 128.875 61.3965 128.875 64.1025C128.875 66.4871 128.959 67.1836 129.294 67.3713C129.518 67.5051 131.445 67.6392 133.54 67.6392C137.282 67.6392 137.394 67.6123 137.813 66.9961C138.26 66.3264 138.148 65.6833 137.45 64.8796C137.115 64.5044 136.556 64.4241 134.322 64.4241L131.613 64.4241L131.417 62.4683C131.305 61.209 130.97 59.9766 130.44 58.9316C129.713 57.4045 127.479 54.511 126.529 53.7876C126.138 53.5195 126.222 53.3589 127.116 52.6624C128.289 51.6978 129.294 49.876 129.294 48.697C129.294 46.9019 127.507 44.571 125.803 44.1692L125.105 44.0083L125.105 39.668C125.105 37.3103 124.965 34.8989 124.798 34.3364C124.239 32.3806 121.725 30.4248 119.715 30.3979C118.039 30.3979 115.749 31.791 114.883 33.3987C114.603 33.9077 114.492 35.1133 114.492 37.4443C114.492 42.4009 114.268 44.0083 113.542 44.2227C112.453 44.5442 111.419 45.4285 110.833 46.5537C109.688 48.697 110.609 51.6443 112.844 52.8767L113.598 53.2786L111.727 55.1807C109.157 57.7795 108.515 59.0925 108.71 61.4233C108.794 62.4146 108.934 63.4863 109.045 63.8079L109.241 64.4241L104.353 64.4241L99.4655 64.4241L99.2979 63.5132C99.0745 62.4146 98.2366 61.343 97.1753 60.8071C95.9185 60.1909 72.6809 60.2178 71.3403 60.834C70.279 61.3162 69.4969 62.2808 69.2456 63.4863L69.078 64.29L56.5934 64.3706L44.1089 64.4241L44.1089 63.6204C44.1089 62.9773 44.2206 62.8167 44.6954 62.8167C45.0864 62.8167 45.2261 62.6826 45.1702 62.3342C45.1143 62.0664 44.863 61.9055 44.5837 61.9592C44.1647 62.0396 44.1089 61.7449 44.1089 59.6016L44.1089 57.1902L45.0585 57.1902C46.6505 57.1902 46.9019 56.574 46.9019 52.6355C46.9019 48.6167 47.2649 47.3306 48.9128 45.5356C51.1192 43.1511 51.203 43.1243 60.3081 43.1243L68.2681 43.1243L70.1114 43.9548C72.4854 45.0264 74.0774 46.4197 74.9432 48.1611C76.5352 51.3228 76.1163 54.4038 73.6026 58.0476L73.0999 58.7976L84.4673 58.7976L95.8347 58.7976L94.8571 57.1099C92.5389 53.1445 92.4272 48.2952 94.6057 45.2944C95.8347 43.5796 96.0581 43.7136 96.0581 46.259C96.0581 49.6079 97.2311 51.0547 99.5493 50.6528C100.275 50.5188 100.694 50.2241 101.085 49.6079C101.616 48.8042 101.644 48.188 101.644 39.0249C101.644 32.8628 101.532 29.1118 101.365 28.7637C101.002 28.1741 99.661 27.4507 98.8511 27.4507C97.8176 27.4507 96.7004 28.2009 96.3653 29.085C96.1978 29.5674 96.0581 31.0676 96.0581 32.4341C96.0581 34.7114 96.0022 34.9258 95.4716 35.0864C95.0526 35.2205 94.7733 35.1133 94.4661 34.6311C93.6003 33.4255 91.1425 31.3357 89.4946 30.3711L87.8188 29.4333L87.6792 24.3696L87.5396 19.2791L83.0708 19.1987C79.8309 19.145 78.4903 19.2256 78.239 19.4666ZM20.1172 33.5862L20.9272 34.363L20.9272 39.293L20.9272 44.2227L20.1172 44.6782C19.6704 44.9192 19.0559 45.616 18.7766 46.2053C18.4974 46.7947 18.2181 47.2771 18.1343 47.2771C18.0505 47.2771 17.7432 46.8215 17.436 46.2856C17.1288 45.7231 16.4864 45.0264 15.9837 44.7317L15.0899 44.1958L15.062 39.5073C15.062 35.5151 15.1458 34.7114 15.5368 34.1489C16.2909 33.0771 16.7936 32.8359 18.0784 32.8091C19.0559 32.8091 19.447 32.97 20.1172 33.5862ZM121.167 33.2112C122.619 33.9077 122.871 34.9526 122.871 39.8555C122.871 44.0083 122.843 44.303 122.34 44.4639C121.642 44.6782 120.078 46.3662 120.078 46.8752C120.078 47.5718 119.659 47.3037 119.1 46.3125C118.793 45.7766 118.15 45.0264 117.648 44.6782L116.726 44.0083L116.726 39.5876C116.726 36.2119 116.81 35.0061 117.145 34.4167C117.983 32.8896 119.547 32.4072 121.167 33.2112ZM86.7575 34.9795C88.8801 35.9707 90.4163 38.7839 90.0532 40.981C89.8298 42.5349 88.3774 44.571 86.981 45.3213C85.5565 46.0981 83.0149 46.1519 81.3671 45.4285C79.1327 44.4639 77.5966 41.6238 78.0435 39.293C78.2948 37.9802 79.384 36.1851 80.3616 35.542C82.205 34.3096 84.8024 34.0684 86.7575 34.9795ZM14.9224 47.1431C16.263 48.4292 15.481 51.0278 13.7493 51.0278C12.7159 51.0278 11.459 50.2778 11.2635 49.5544C10.6491 47.1965 13.2466 45.5088 14.9224 47.1431ZM24.3626 47.009C25.2842 47.7058 25.5077 48.697 24.9771 49.6882C24.1392 51.2422 22.5751 51.4565 21.2065 50.2241C20.4245 49.5276 20.3128 49.2864 20.4803 48.5364C20.8434 46.7412 22.9102 45.9106 24.3626 47.009ZM116.586 47.1431C117.648 48.1343 117.62 49.5007 116.558 50.4116C115.078 51.6978 112.844 50.6528 112.816 48.6702C112.816 46.7947 115.218 45.8035 116.586 47.1431ZM126.055 47.3037C127.004 48.3755 126.976 49.2864 125.971 50.251C124.882 51.269 123.96 51.269 123.038 50.1973C122.2 49.2598 122.144 48.6436 122.731 47.5449C123.457 46.1785 124.993 46.0713 126.055 47.3037ZM121.809 52.5015L122.647 53.1982L120.525 55.3147C119.351 56.4937 118.402 57.6724 118.402 57.9136C118.318 60.2444 117.843 62.3879 117.257 63.0042C116.251 64.0222 115.218 64.4241 113.682 64.4241C112.09 64.4241 111.559 64.0491 111.14 62.6023C110.386 60.0034 111.112 58.7173 115.469 54.645C117.368 52.8767 119.128 51.0278 119.379 50.5457L119.854 49.6348L120.413 50.7332C120.72 51.3494 121.362 52.1265 121.809 52.5015ZM26.6807 59.2263C27.2393 60.6731 27.0997 62.5754 26.3176 63.5935C25.8428 64.1829 25.5077 64.29 24.1112 64.3706C22.603 64.4241 22.3796 64.3706 21.3741 63.5935C19.6704 62.2271 19.0839 60.2444 19.8938 58.4495C20.0894 58.0476 20.8714 57.0562 21.6255 56.2524L23.022 54.8057L24.614 56.4131C25.4797 57.2974 26.4294 58.5566 26.6807 59.2263Z" fill="#1E1E1E" fill-opacity="1.000000" fill-rule="nonzero"/>
	<path id="Vector" d="M78.239 19.4666C77.9875 19.7078 77.9038 21.2349 77.9038 24.9055L77.9038 30.0227L73.7981 31.416C64.6372 34.5239 58.4927 35.8367 53.9401 35.7029C51.1192 35.6223 50.812 35.5688 49.5272 34.8186C47.7118 33.7202 46.6226 32.0054 46.427 29.8889L46.2595 28.2544L45.1981 28.2544L44.1089 28.2544L44.1089 26.647L44.1089 25.0396L42.9917 25.0396L41.8745 25.0396L41.8745 26.647L41.8745 28.2544L40.5618 28.2544L39.2212 28.2544L39.277 42.374C39.3329 58.1011 39.1932 57.1902 41.2321 57.1902C41.9583 57.1902 42.1538 57.2974 42.1538 57.7261C42.1538 58.0208 41.9583 58.262 41.7349 58.262C41.5114 58.262 41.3159 58.3423 41.288 58.4495C41.0925 59.8694 41.1483 60.2178 41.6231 60.325C42.07 60.4587 42.1538 60.7537 42.1538 62.4414L42.1538 64.4241L35.4227 64.4241L28.6917 64.4241L28.9151 63.6738C29.0547 63.272 29.1665 62.0396 29.1665 60.9412C29.1665 58.4226 28.5521 57.1365 26.2339 54.752C24.8094 53.3052 24.6419 53.0105 25.0329 52.7961C26.3456 52.0996 27.6304 50.0903 27.6304 48.7505C27.6304 47.0359 26.0383 44.8389 24.3905 44.3298L23.4968 44.0352L23.385 39.293C23.3013 34.9526 23.2454 34.4436 22.6309 33.2646C21.6813 31.3892 20.201 30.5317 17.9946 30.5317C15.8719 30.5317 14.28 31.416 13.3303 33.1575C12.7438 34.1755 12.688 34.7114 12.6042 39.1321L12.4924 44.0083L11.3753 44.4907C9.97876 45.0801 8.88953 46.6072 8.72192 48.188C8.52643 49.8491 9.42017 51.5906 10.9843 52.5552L12.1852 53.3052L10.1743 55.3416C7.80029 57.7261 6.9624 59.4675 6.73895 62.4683L6.5993 64.4241L3.75049 64.4241C1.34851 64.4241 0.845764 64.5044 0.454773 64.9062C-0.187622 65.5762 -0.131775 66.6479 0.51062 67.2104C0.985413 67.6123 1.54401 67.666 4.86768 67.5857C7.6048 67.532 8.72192 67.3979 8.88953 67.157C9.00122 66.9692 9.05713 65.9246 8.97333 64.8796C8.83368 62.6826 9.39227 60.0837 10.3698 58.5566C10.705 58.0208 12.4645 56.1453 14.252 54.377C16.0396 52.6086 17.6595 50.8672 17.855 50.5188L18.2181 49.8491L18.7208 50.8137C19.0001 51.3494 19.6983 52.1533 20.2569 52.5818L21.2624 53.3857L19.8938 54.6985C17.9946 56.4668 17.2405 57.967 17.2126 60.0034C17.1846 62.897 18.8604 65.4153 21.7093 66.7551L23.3013 67.5051L68.9663 67.5051L114.631 67.5051L116.084 66.8623C117.704 66.1655 119.296 64.6653 119.882 63.272C120.106 62.7898 120.357 61.584 120.469 60.6196C120.692 58.6638 121.474 57.2705 123.234 55.6362L124.183 54.752L125.803 56.4399C126.697 57.3777 127.73 58.7976 128.149 59.6016C128.792 60.9143 128.875 61.3965 128.875 64.1025C128.875 66.4871 128.959 67.1836 129.294 67.3713C129.518 67.5051 131.445 67.6392 133.54 67.6392C137.282 67.6392 137.394 67.6123 137.813 66.9961C138.26 66.3264 138.148 65.6833 137.45 64.8796C137.115 64.5044 136.556 64.4241 134.322 64.4241L131.613 64.4241L131.417 62.4683C131.305 61.209 130.97 59.9766 130.44 58.9316C129.713 57.4045 127.479 54.511 126.529 53.7876C126.138 53.5195 126.222 53.3589 127.116 52.6624C128.289 51.6978 129.294 49.876 129.294 48.697C129.294 46.9019 127.507 44.571 125.803 44.1692L125.105 44.0083L125.105 39.668C125.105 37.3103 124.965 34.8989 124.798 34.3364C124.239 32.3806 121.725 30.4248 119.715 30.3979C118.039 30.3979 115.749 31.791 114.883 33.3987C114.603 33.9077 114.492 35.1133 114.492 37.4443C114.492 42.4009 114.268 44.0083 113.542 44.2227C112.453 44.5442 111.419 45.4285 110.833 46.5537C109.688 48.697 110.609 51.6443 112.844 52.8767L113.598 53.2786L111.727 55.1807C109.157 57.7795 108.515 59.0925 108.71 61.4233C108.794 62.4146 108.934 63.4863 109.045 63.8079L109.241 64.4241L104.353 64.4241L99.4655 64.4241L99.2979 63.5132C99.0745 62.4146 98.2366 61.343 97.1753 60.8071C95.9185 60.1909 72.6809 60.2178 71.3403 60.834C70.279 61.3162 69.4969 62.2808 69.2456 63.4863L69.078 64.29L56.5934 64.3706L44.1089 64.4241L44.1089 63.6204C44.1089 62.9773 44.2206 62.8167 44.6954 62.8167C45.0864 62.8167 45.2261 62.6826 45.1702 62.3342C45.1143 62.0664 44.863 61.9055 44.5837 61.9592C44.1647 62.0396 44.1089 61.7449 44.1089 59.6016L44.1089 57.1902L45.0585 57.1902C46.6505 57.1902 46.9019 56.574 46.9019 52.6355C46.9019 48.6167 47.2649 47.3306 48.9128 45.5356C51.1192 43.1511 51.203 43.1243 60.3081 43.1243L68.2681 43.1243L70.1114 43.9548C72.4854 45.0264 74.0774 46.4197 74.9432 48.1611C76.5352 51.3228 76.1163 54.4038 73.6026 58.0476L73.0999 58.7976L84.4673 58.7976L95.8347 58.7976L94.8571 57.1099C92.5389 53.1445 92.4272 48.2952 94.6057 45.2944C95.8347 43.5796 96.0581 43.7136 96.0581 46.259C96.0581 49.6079 97.2311 51.0547 99.5493 50.6528C100.275 50.5188 100.694 50.2241 101.085 49.6079C101.616 48.8042 101.644 48.188 101.644 39.0249C101.644 32.8628 101.532 29.1118 101.365 28.7637C101.002 28.1741 99.661 27.4507 98.8511 27.4507C97.8176 27.4507 96.7004 28.2009 96.3653 29.085C96.1978 29.5674 96.0581 31.0676 96.0581 32.4341C96.0581 34.7114 96.0022 34.9258 95.4716 35.0864C95.0526 35.2205 94.7733 35.1133 94.4661 34.6311C93.6003 33.4255 91.1425 31.3357 89.4946 30.3711L87.8188 29.4333L87.6792 24.3696L87.5396 19.2791L83.0708 19.1987C79.8309 19.145 78.4903 19.2256 78.239 19.4666ZM20.1172 33.5862L20.9272 34.363L20.9272 39.293L20.9272 44.2227L20.1172 44.6782C19.6704 44.9192 19.0559 45.616 18.7766 46.2053C18.4974 46.7947 18.2181 47.2771 18.1343 47.2771C18.0505 47.2771 17.7432 46.8215 17.436 46.2856C17.1288 45.7231 16.4864 45.0264 15.9837 44.7317L15.0899 44.1958L15.062 39.5073C15.062 35.5151 15.1458 34.7114 15.5368 34.1489C16.2909 33.0771 16.7936 32.8359 18.0784 32.8091C19.0559 32.8091 19.447 32.97 20.1172 33.5862ZM121.167 33.2112C122.619 33.9077 122.871 34.9526 122.871 39.8555C122.871 44.0083 122.843 44.303 122.34 44.4639C121.642 44.6782 120.078 46.3662 120.078 46.8752C120.078 47.5718 119.659 47.3037 119.1 46.3125C118.793 45.7766 118.15 45.0264 117.648 44.6782L116.726 44.0083L116.726 39.5876C116.726 36.2119 116.81 35.0061 117.145 34.4167C117.983 32.8896 119.547 32.4072 121.167 33.2112ZM86.7575 34.9795C88.8801 35.9707 90.4163 38.7839 90.0532 40.981C89.8298 42.5349 88.3774 44.571 86.981 45.3213C85.5565 46.0981 83.0149 46.1519 81.3671 45.4285C79.1327 44.4639 77.5966 41.6238 78.0435 39.293C78.2948 37.9802 79.384 36.1851 80.3616 35.542C82.205 34.3096 84.8024 34.0684 86.7575 34.9795ZM14.9224 47.1431C16.263 48.4292 15.481 51.0278 13.7493 51.0278C12.7159 51.0278 11.459 50.2778 11.2635 49.5544C10.6491 47.1965 13.2466 45.5088 14.9224 47.1431ZM24.3626 47.009C25.2842 47.7058 25.5077 48.697 24.9771 49.6882C24.1392 51.2422 22.5751 51.4565 21.2065 50.2241C20.4245 49.5276 20.3128 49.2864 20.4803 48.5364C20.8434 46.7412 22.9102 45.9106 24.3626 47.009ZM116.586 47.1431C117.648 48.1343 117.62 49.5007 116.558 50.4116C115.078 51.6978 112.844 50.6528 112.816 48.6702C112.816 46.7947 115.218 45.8035 116.586 47.1431ZM126.055 47.3037C127.004 48.3755 126.976 49.2864 125.971 50.251C124.882 51.269 123.96 51.269 123.038 50.1973C122.2 49.2598 122.144 48.6436 122.731 47.5449C123.457 46.1785 124.993 46.0713 126.055 47.3037ZM121.809 52.5015L122.647 53.1982L120.525 55.3147C119.351 56.4937 118.402 57.6724 118.402 57.9136C118.318 60.2444 117.843 62.3879 117.257 63.0042C116.251 64.0222 115.218 64.4241 113.682 64.4241C112.09 64.4241 111.559 64.0491 111.14 62.6023C110.386 60.0034 111.112 58.7173 115.469 54.645C117.368 52.8767 119.128 51.0278 119.379 50.5457L119.854 49.6348L120.413 50.7332C120.72 51.3494 121.362 52.1265 121.809 52.5015ZM26.6807 59.2263C27.2393 60.6731 27.0997 62.5754 26.3176 63.5935C25.8428 64.1829 25.5077 64.29 24.1112 64.3706C22.603 64.4241 22.3796 64.3706 21.3741 63.5935C19.6704 62.2271 19.0839 60.2444 19.8938 58.4495C20.0894 58.0476 20.8714 57.0562 21.6255 56.2524L23.022 54.8057L24.614 56.4131C25.4797 57.2974 26.4294 58.5566 26.6807 59.2263Z" fill="#1E1E1E" fill-opacity="1.000000" fill-rule="nonzero"/>
	<path id="Vector" d="M81.9257 36.0242C81.5905 36.1313 81.0599 36.5869 80.7247 36.9888L80.1382 37.7122L80.9761 38.2212C82.0095 38.8105 82.0653 38.8105 82.8753 38.1675C83.3501 37.7925 83.5177 37.4175 83.4339 36.7744C83.3501 35.8367 82.9312 35.6223 81.9257 36.0242Z" fill="#1E1E1E" fill-opacity="1.000000" fill-rule="nonzero"/>
	<path id="Vector" d="M84.3276 36.6138C84.3556 37.3372 84.5511 37.6052 85.361 38.1143L86.3665 38.7305L87.0648 38.0605C87.6792 37.498 87.735 37.3372 87.3999 36.9622C86.8972 36.3728 85.6124 35.7566 84.8862 35.7566C84.4393 35.7566 84.3276 35.9172 84.3276 36.6138Z" fill="#1E1E1E" fill-opacity="1.000000" fill-rule="nonzero"/>
	<path id="Vector" d="M79.4958 38.8906C79.2444 39.105 79.2444 40.927 79.4678 41.4895C79.8868 42.5344 81.5346 41.5164 81.5346 40.2302C81.5346 39.2659 80.0823 38.3013 79.4958 38.8906Z" fill="#1E1E1E" fill-opacity="1.000000" fill-rule="nonzero"/>
	<path id="Vector" d="M83.2383 39.1587C81.8698 40.0696 83.1546 42.4006 84.6069 41.6504C85.5286 41.1682 85.8358 40.3645 85.3331 39.6677C84.8024 38.864 83.9645 38.6497 83.2383 39.1587Z" fill="#1E1E1E" fill-opacity="1.000000" fill-rule="nonzero"/>
	<path id="Vector" d="M87.1765 39.1323C86.2548 39.7485 86.3665 40.9272 87.3719 41.6238C87.8188 41.9453 88.2657 42.1865 88.3495 42.1865C88.6567 42.1865 89.0477 40.2307 88.8801 39.4805C88.7126 38.5964 88.126 38.4893 87.1765 39.1323Z" fill="#1E1E1E" fill-opacity="1.000000" fill-rule="nonzero"/>
	<path id="Vector" d="M80.9202 42.2666C80.194 42.8293 80.1661 42.9097 80.5571 43.4187C81.0319 44.1155 82.4843 44.7048 83.0708 44.4905C83.8249 44.2227 83.5735 42.8293 82.6798 42.2131C81.7023 41.5432 81.8419 41.5432 80.9202 42.2666Z" fill="#1E1E1E" fill-opacity="1.000000" fill-rule="nonzero"/>
	<path id="Vector" d="M85.1097 42.481C84.5511 42.8562 84.3276 43.2849 84.3276 43.8208C84.3276 44.4905 84.4393 44.5977 85.1097 44.5977C86.0872 44.5977 87.6512 43.6064 87.6792 42.9902C87.6792 42.8562 86.171 41.9185 85.9476 41.9185C85.9196 41.9185 85.5286 42.1863 85.1097 42.481Z" fill="#1E1E1E" fill-opacity="1.000000" fill-rule="nonzero"/>
	<path id="Vector" d="M111.643 19.9487C110.917 20.6721 110.805 20.9133 110.945 21.7708C111.391 24.3962 114.743 24.7446 115.609 22.2529C116.447 19.7881 113.57 18.127 111.643 19.9487Z" fill="#1E1E1E" fill-opacity="1.000000" fill-rule="nonzero"/>
	<path id="Vector" d="M26.7924 24.1016C26.2897 24.6909 26.7086 25.4946 27.7141 25.8162C28.2169 26.0037 29.725 26.7539 31.1215 27.5042C33.719 28.9241 34.3614 28.9775 34.5569 27.7988C34.6407 27.3164 34.0541 26.9414 31.0098 25.4678C29.0268 24.5034 27.3231 23.6995 27.2672 23.6995C27.1835 23.6995 26.9879 23.8872 26.7924 24.1016Z" fill="#1E1E1E" fill-opacity="1.000000" fill-rule="nonzero"/>
	<path id="Vector" d="M105.554 26.0574C103.85 27.1558 103.543 27.7988 104.437 28.2542C104.94 28.5222 105.303 28.3882 106.839 27.4236C108.235 26.5664 108.626 26.1646 108.571 25.7358C108.431 24.7981 107.286 24.9319 105.554 26.0574Z" fill="#1E1E1E" fill-opacity="1.000000" fill-rule="nonzero"/>
	<path id="Vector" d="M106.727 36.3457C106.308 36.7476 106.308 37.4443 106.727 37.8462C107.146 38.248 109.716 38.2747 110.721 37.8997C111.308 37.6853 111.447 37.4709 111.364 36.8816C111.28 36.1851 111.252 36.1582 109.185 36.0779C107.789 36.0242 106.979 36.1045 106.727 36.3457Z" fill="#1E1E1E" fill-opacity="1.000000" fill-rule="nonzero"/>
	<path id="Vector" d="M30.4792 37.0691C30.2557 37.1763 30.144 37.5781 30.1999 37.9265C30.2837 38.4624 30.5071 38.5964 31.764 38.7839C32.8253 38.9446 33.356 38.9177 33.6353 38.7034C34.2776 38.1943 34.138 37.3906 33.4398 37.2566C31.7081 36.9084 30.8143 36.8547 30.4792 37.0691Z" fill="#1E1E1E" fill-opacity="1.000000" fill-rule="nonzero"/>
	<path id="Vector" d="M12.6879 68.2285C11.2635 68.925 10.6212 69.0859 8.35883 69.1931C5.14691 69.3538 4.42078 69.7288 5.45416 70.6934C5.84515 71.0686 7.35339 71.1221 17.9946 71.1221L30.1161 71.1221L30.535 70.5327C31.2333 69.595 30.6467 69.2466 28.3565 69.2466C24.2787 69.2197 19.6703 68.7375 17.3243 68.041C16.0116 67.6658 14.8386 67.3711 14.671 67.3711C14.5034 67.3979 13.6096 67.7729 12.6879 68.2285Z" fill="#1E1E1E" fill-opacity="1.000000" fill-rule="nonzero"/>
	<path id="Vector" d="M121.055 68.0945C119.212 68.6304 117.983 68.7913 114.212 68.9519C111.671 69.0591 109.436 69.2197 109.241 69.3269C108.766 69.6216 108.822 70.7737 109.353 70.9614C109.604 71.0417 114.799 71.1221 120.916 71.1221C130.803 71.1221 132.087 71.0686 132.506 70.6934C132.758 70.4521 132.925 70.0503 132.869 69.8093C132.786 69.4609 132.255 69.3538 129.993 69.2197C127.116 69.0591 126.39 68.8716 124.965 67.9338C123.932 67.2373 123.82 67.2373 121.055 68.0945Z" fill="#1E1E1E" fill-opacity="1.000000" fill-rule="nonzero"/>
</svg>
