<svg width="17.963745" height="17.963623" viewBox="0 0 17.9637 17.9636" fill="none" xmlns="http://www.w3.org/2000/svg" xmlns:xlink="http://www.w3.org/1999/xlink">
	<desc>
			Created with Pixso.
	</desc>
	<defs/>
	<path id="Vector" d="M16.2036 12.25L13.6637 11.96C13.365 11.9248 13.0623 11.958 12.7782 12.0566C12.4941 12.1555 12.2362 12.3171 12.0237 12.53L10.1837 14.3701C7.34485 12.9263 5.03748 10.6189 3.59363 7.78003L5.44373 5.92993C5.87366 5.5 6.08362 4.8999 6.01367 4.29004L5.72363 1.77002C5.66699 1.28223 5.43286 0.832275 5.06592 0.505859C4.69897 0.179443 4.22473 -0.000488281 3.73364 0L2.00366 0C0.873657 0 -0.0662842 0.939941 0.00366211 2.07007C0.533691 10.6101 7.36365 17.4299 15.8937 17.96C17.0237 18.03 17.9636 17.0901 17.9636 15.96L17.9636 14.23C17.9736 13.22 17.2136 12.3701 16.2036 12.25Z" fill="#1E1E1E" fill-opacity="1.000000" fill-rule="nonzero"/>
</svg>
