<svg width="50.000000" height="50.000000" viewBox="0 0 50 50" fill="none" xmlns="http://www.w3.org/2000/svg" xmlns:xlink="http://www.w3.org/1999/xlink">
	<desc>
			Created with Pixso.
	</desc>
	<defs/>
	<path id="Vector" d="M9.53033 11.1748C9.16974 11.7476 9.89099 11.8112 17.0189 11.8324C23.9347 11.8324 24.3378 11.8536 23.8499 12.1719C23.0437 12.7021 16.8492 18.8755 16.8492 19.13C16.8492 19.5118 17.9523 20.4666 18.8009 20.8059C20.4344 21.506 21.9194 21.1241 23.277 19.7028L24.1044 18.8542L25.2499 19.4695C25.8864 19.7877 26.7349 20.1271 27.1168 20.1907C28.1351 20.3817 36.3661 28.6339 36.3661 29.4613C36.3661 30.0553 35.5176 30.9038 34.9236 30.9038C34.7538 30.9038 33.8416 30.1401 32.887 29.2067C31.9324 28.2733 31.0201 27.5095 30.8929 27.5095C30.2777 27.5095 30.7656 28.3582 32.3354 29.9705C33.2689 30.925 34.0326 31.8584 34.0326 32.0493C34.0326 32.5585 33.0779 33.4495 32.5264 33.4495C32.2506 33.4495 31.402 32.8131 30.2989 31.71C28.92 30.3734 28.4532 30.0341 28.2623 30.225C28.0714 30.4159 28.4108 30.8826 29.7473 32.2615C31.6141 34.1495 31.8475 34.7435 31.0626 35.4648C30.2777 36.1649 29.6412 35.9528 28.0714 34.3829C26.8622 33.1949 26.6077 32.8131 26.6077 32.2615C26.6077 31.3281 25.6954 30.2675 24.9105 30.2675C24.4014 30.2675 24.2953 30.1614 24.1893 29.5461C24.0195 28.6764 23.0013 27.7217 22.2375 27.7217C21.8345 27.7217 21.7284 27.6156 21.7284 27.2125C21.7284 26.4489 20.7738 25.4305 19.904 25.2609C19.2888 25.1548 19.1827 25.0487 19.1827 24.5396C19.1827 23.6698 18.122 22.8425 17.0401 22.8425C16.2976 22.8425 16.0219 22.991 15.0248 23.9456C13.9429 24.9639 13.858 25.0063 13.4974 24.6881C12.9458 24.179 9 24.1577 9 24.6456C9 24.9003 9.33942 24.9639 10.7607 24.9639C11.9276 24.9851 12.6276 25.0699 12.9034 25.2821C13.2852 25.5791 13.2852 25.6003 12.7336 26.2367C11.9487 27.1914 11.97 28.3794 12.7973 29.2279C13.158 29.5674 13.6459 29.8431 13.9429 29.8431C14.3671 29.8431 14.5156 29.9705 14.6217 30.4795C14.8339 31.413 15.5127 32.1343 16.3188 32.304C16.9128 32.41 17.0613 32.5374 17.0613 32.9192C17.0613 33.6404 17.825 34.4678 18.7797 34.7435C19.4373 34.9557 19.607 35.1042 19.607 35.5073C19.607 35.8043 19.8828 36.3134 20.2222 36.6528C21.0284 37.459 22.1951 37.5013 23.1074 36.7589L23.7438 36.2285L25.1439 37.6074C26.2894 38.7531 26.6925 39.0076 27.4138 39.1136C28.1987 39.2197 28.3684 39.1561 29.0472 38.4772C29.514 38.0105 29.7897 37.5226 29.7897 37.1832C29.7897 36.7377 29.8958 36.6316 30.3201 36.6316C31.1475 36.6316 31.89 36.0376 32.1445 35.1254C32.3354 34.5103 32.5264 34.2981 32.9931 34.192C33.7992 34.0011 34.669 33.0889 34.669 32.3888C34.669 31.9009 34.7963 31.7736 35.5176 31.5614C37.342 31.0099 37.6814 29.1854 36.2388 27.7004C35.4539 26.8944 35.4539 26.8732 35.8358 26.4489C36.1752 26.067 36.4722 26.0245 38.636 26.0245C40.8423 26.0245 41.0544 25.9822 40.9908 25.6427C40.9271 25.3246 40.6089 25.2821 38.5087 25.2185C36.1116 25.1548 36.0691 25.176 35.4751 25.7488L34.8599 26.3215L32.0172 23.4789C30.4474 21.9091 29.1533 20.5514 29.1533 20.4666C29.1533 20.3605 29.4291 20.2968 29.7686 20.2968C30.4898 20.2968 32.9294 19.0876 33.2689 18.5573C33.6083 18.0057 33.2264 17.8147 32.59 18.239C30.9565 19.2573 30.108 19.5543 28.623 19.5331C27.1592 19.5331 26.2258 19.2148 24.5499 18.1542C24.1044 17.8784 23.9984 17.942 23.0649 18.8542C21.7921 20.0847 21.3466 20.2968 20.1586 20.2968C19.4373 20.2968 19.0555 20.1696 18.5463 19.724L17.8675 19.1725L20.9223 16.1177C23.1074 13.9114 24.2741 12.9143 25.1227 12.49L26.2894 11.9172L33.6719 11.8536C40.5029 11.7899 41.0544 11.7688 40.9908 11.4293C40.9271 11.0898 39.8028 11.0687 25.2924 11.005C14.9824 10.9839 9.61523 11.0262 9.53033 11.1748ZM18.016 24.0093C18.313 24.285 18.5463 24.6881 18.5463 24.879C18.5463 25.0699 17.719 26.067 16.7007 27.1064C14.7702 29.1006 14.1126 29.3976 13.3701 28.6552C12.6488 27.9551 12.9458 27.1914 14.5793 25.5155C16.7431 23.3092 17.1462 23.1183 18.016 24.0093ZM20.4131 26.364C20.7314 26.5762 20.8799 26.8944 20.8799 27.3398C20.8799 27.8915 20.5829 28.3157 19.1191 29.7794C17.2098 31.6887 16.5946 31.9221 15.7885 31.116C15.0248 30.3523 15.2581 29.8855 17.231 27.8915C19.1615 25.9609 19.5646 25.77 20.4131 26.364ZM23.1285 29.1006C23.6589 29.9067 23.3831 30.4584 21.4102 32.3676C19.798 33.9374 19.5434 34.1072 19.0342 34.0011C18.313 33.8102 17.9099 33.3223 17.9099 32.6222C17.9099 32.2191 18.3978 31.6039 19.6495 30.3311C21.1344 28.8461 21.5163 28.5703 22.0891 28.5703C22.5982 28.5703 22.874 28.7188 23.1285 29.1006ZM25.2924 31.2644C26.2682 32.113 26.1409 32.4736 24.1469 34.5103C22.3224 36.3983 21.8981 36.6316 20.986 36.2922C20.795 36.2073 20.5405 35.9103 20.4344 35.6345C20.1586 34.9133 20.5616 34.2556 22.3012 32.5797C24.1469 30.7977 24.5287 30.6281 25.2924 31.2644ZM27.6047 35.1891C29.0261 36.5892 29.2382 37.2256 28.5806 37.9469C27.9229 38.6893 27.1168 38.4348 25.6318 37.0134L24.2529 35.6982L25.1651 34.786C25.653 34.2769 26.0985 33.8738 26.1622 33.8738C26.2258 33.8738 26.8834 34.4678 27.6047 35.1891Z" fill="#FFFFFF" fill-opacity="1.000000" fill-rule="nonzero"/>
</svg>
