<svg width="32.000000" height="28.154663" viewBox="0 0 32 28.1547" fill="none" xmlns="http://www.w3.org/2000/svg" xmlns:xlink="http://www.w3.org/1999/xlink">
	<desc>
			Created with Pixso.
	</desc>
	<defs/>
	<path id="Vector" d="M0.530334 0.174927C0.169739 0.747681 0.890991 0.811279 8.01892 0.83252C14.9347 0.83252 15.3378 0.85376 14.8499 1.172C14.0437 1.70227 7.84918 7.87561 7.84918 8.13013C7.84918 8.51196 8.95233 9.46667 9.8009 9.80603C11.4344 10.5061 12.9194 10.1243 14.277 8.70288L15.1044 7.85437L16.2499 8.4696C16.8864 8.78784 17.7349 9.1272 18.1168 9.1908C19.1351 9.38184 27.3661 17.634 27.3661 18.4614C27.3661 19.0554 26.5176 19.9039 25.9236 19.9039C25.7538 19.9039 24.8416 19.1403 23.887 18.2068C22.9324 17.2734 22.0201 16.5096 21.8929 16.5096C21.2777 16.5096 21.7656 17.3583 23.3354 18.9706C24.2689 19.9252 25.0326 20.8585 25.0326 21.0494C25.0326 21.5586 24.0779 22.4496 23.5264 22.4496C23.2506 22.4496 22.402 21.8132 21.2989 20.7101C19.92 19.3735 19.4532 19.0342 19.2623 19.2251C19.0714 19.416 19.4108 19.8827 20.7473 21.2616C22.6141 23.1497 22.8475 23.7437 22.0626 24.465C21.2777 25.165 20.6412 24.9529 19.0714 23.3831C17.8622 22.1951 17.6077 21.8132 17.6077 21.2616C17.6077 20.3282 16.6954 19.2676 15.9105 19.2676C15.4014 19.2676 15.2953 19.1615 15.1893 18.5463C15.0195 17.6765 14.0013 16.7218 13.2375 16.7218C12.8345 16.7218 12.7284 16.6157 12.7284 16.2126C12.7284 15.449 11.7738 14.4307 10.904 14.261C10.2888 14.1549 10.1827 14.0488 10.1827 13.5397C10.1827 12.6699 9.12201 11.8427 8.0401 11.8427C7.29761 11.8427 7.02185 11.9911 6.02478 12.9457C4.94287 13.964 4.85803 14.0065 4.49738 13.6882C3.9458 13.1791 0 13.1578 0 13.6458C0 13.9004 0.339417 13.964 1.76074 13.964C2.92755 13.9852 3.62762 14.0701 3.90338 14.2822C4.28522 14.5792 4.28522 14.6005 3.73364 15.2368C2.94873 16.1915 2.96997 17.3795 3.7973 18.228C4.15796 18.5675 4.64587 18.8433 4.94287 18.8433C5.36713 18.8433 5.51562 18.9706 5.6217 19.4796C5.83386 20.4131 6.5127 21.1344 7.31885 21.3041C7.91284 21.4102 8.06134 21.5375 8.06134 21.9193C8.06134 22.6405 8.82501 23.4679 9.77966 23.7437C10.4373 23.9558 10.607 24.1044 10.607 24.5074C10.607 24.8044 10.8828 25.3135 11.2222 25.653C12.0284 26.4591 13.1951 26.5015 14.1074 25.759L14.7438 25.2286L16.1439 26.6075C17.2894 27.7532 17.6925 28.0077 18.4138 28.1138C19.1987 28.2198 19.3684 28.1562 20.0472 27.4773C20.514 27.0106 20.7897 26.5227 20.7897 26.1833C20.7897 25.7378 20.8958 25.6317 21.3201 25.6317C22.1475 25.6317 22.89 25.0377 23.1445 24.1255C23.3354 23.5104 23.5264 23.2982 23.9931 23.1921C24.7992 23.0012 25.669 22.089 25.669 21.3889C25.669 20.901 25.7963 20.7737 26.5176 20.5615C28.342 20.01 28.6814 18.1855 27.2388 16.7006C26.4539 15.8945 26.4539 15.8733 26.8358 15.449C27.1752 15.0671 27.4722 15.0247 29.636 15.0247C31.8423 15.0247 32.0544 14.9823 31.9908 14.6428C31.9271 14.3247 31.6089 14.2822 29.5087 14.2186C27.1116 14.1549 27.0691 14.1761 26.4751 14.7489L25.8599 15.3217L23.0172 12.479C21.4474 10.9092 20.1533 9.55151 20.1533 9.46667C20.1533 9.3606 20.4291 9.29688 20.7686 9.29688C21.4898 9.29688 23.9294 8.08777 24.2689 7.55737C24.6083 7.00586 24.2264 6.81482 23.59 7.23914C21.9565 8.25745 21.108 8.55444 19.623 8.5332C18.1592 8.5332 17.2258 8.21497 15.5499 7.1543C15.1044 6.87854 14.9984 6.94214 14.0649 7.85437C12.7921 9.08484 12.3466 9.29688 11.1586 9.29688C10.4373 9.29688 10.0555 9.16968 9.54633 8.72412L8.86749 8.17261L11.9223 5.1178C14.1074 2.9115 15.2741 1.91443 16.1227 1.49011L17.2894 0.917358L24.6719 0.85376C31.5029 0.790039 32.0544 0.768921 31.9908 0.429443C31.9271 0.0899658 30.8028 0.0688477 16.2924 0.00512695C5.98236 -0.0159912 0.615234 0.0263672 0.530334 0.174927ZM9.01599 13.0094C9.31299 13.2852 9.54633 13.6882 9.54633 13.8792C9.54633 14.0701 8.71899 15.0671 7.70068 16.1066C5.7702 18.1007 5.11261 18.3977 4.37012 17.6553C3.6488 16.9552 3.9458 16.1915 5.57928 14.5156C7.7431 12.3093 8.14618 12.1184 9.01599 13.0094ZM11.4131 15.3641C11.7314 15.5763 11.8799 15.8945 11.8799 16.34C11.8799 16.8916 11.5829 17.3158 10.1191 18.7795C8.20984 20.6888 7.5946 20.9222 6.78851 20.1161C6.02478 19.3524 6.25812 18.8856 8.23102 16.8916C10.1615 14.9611 10.5646 14.7701 11.4131 15.3641ZM14.1285 18.1007C14.6589 18.9069 14.3831 19.4585 12.4102 21.3677C10.798 22.9375 10.5434 23.1073 10.0342 23.0012C9.31299 22.8103 8.90991 22.3224 8.90991 21.6223C8.90991 21.2192 9.39783 20.604 10.6495 19.3312C12.1344 17.8462 12.5163 17.5704 13.0891 17.5704C13.5982 17.5704 13.874 17.7189 14.1285 18.1007ZM16.2924 20.2645C17.2682 21.1132 17.1409 21.4738 15.1469 23.5104C13.3224 25.3984 12.8981 25.6317 11.986 25.2924C11.795 25.2074 11.5405 24.9104 11.4344 24.6346C11.1586 23.9135 11.5616 23.2557 13.3012 21.5798C15.1469 19.7979 15.5287 19.6282 16.2924 20.2645ZM18.6047 24.1892C20.0261 25.5894 20.2382 26.2257 19.5806 26.947C18.9229 27.6895 18.1168 27.4349 16.6318 26.0135L15.2529 24.6984L16.1651 23.7861C16.653 23.277 17.0985 22.8739 17.1622 22.8739C17.2258 22.8739 17.8834 23.4679 18.6047 24.1892Z" fill="#FFFFFF" fill-opacity="1.000000" fill-rule="nonzero"/>
</svg>
