<svg width="50.000000" height="50.000000" viewBox="0 0 50 50" fill="none" xmlns="http://www.w3.org/2000/svg" xmlns:xlink="http://www.w3.org/1999/xlink">
	<desc>
			Created with Pixso.
	</desc>
	<defs/>
	<path id="Vector" d="M10.9972 9.36597C10.3752 9.60815 9.65979 9.94128 9.41101 10.1229C8.04248 11.2433 7.54492 14.7559 8.47791 16.6938C9.90869 19.6007 14.6362 19.8127 16.3779 17.0269C16.8134 16.3304 17 15.5128 17 14.0897C17 11.637 16.2847 10.3652 14.4185 9.54761C12.8634 8.8512 12.5524 8.8512 10.9972 9.36597ZM14.0453 10.6377C17.1244 12.0306 16.4091 17.2994 13.0811 17.905C11.9303 18.1169 10.4374 17.4811 9.72205 16.4515C8.94446 15.3917 9.06885 12.5454 9.87756 11.5461C11.0283 10.1229 12.3657 9.85046 14.0453 10.6377Z" fill="#FFFFFF" fill-opacity="1.000000" fill-rule="nonzero"/>
	<path id="Vector" d="M33.9972 9.36597C33.3752 9.60815 32.6598 9.94128 32.411 10.1229C31.0425 11.2433 30.5449 14.7559 31.4779 16.6938C32.9087 19.6007 37.6362 19.8127 39.3779 17.0269C39.8134 16.3304 40 15.5128 40 14.0897C40 11.637 39.2847 10.3652 37.4185 9.54761C35.8634 8.8512 35.5524 8.8512 33.9972 9.36597ZM37.0453 10.6377C40.1244 12.0306 39.4091 17.2994 36.0811 17.905C34.9303 18.1169 33.4374 17.4811 32.722 16.4515C31.9445 15.3917 32.0688 12.5454 32.8776 11.5461C34.0283 10.1229 35.3657 9.85046 37.0453 10.6377Z" fill="#FFFFFF" fill-opacity="1.000000" fill-rule="nonzero"/>
	<path id="Vector" d="M23.1311 16.5901C22.0928 17.7133 20.1007 19.0483 17.3033 20.447C15.1205 21.5702 15.0781 21.5702 12.7471 21.6761C10.6914 21.7609 10.3099 21.8457 9.63184 22.3119C8.1272 23.3291 8 23.8589 8 28.5L8 32.6112L8.95361 33.5437L9.90723 34.4762L9.94971 38.0787C10.0133 41.1305 10.0557 41.7026 10.3312 41.7026C10.6066 41.7026 10.649 41.1093 10.7125 37.8881L10.755 34.0735L9.80127 33.1199L8.84766 32.1874L8.84766 28.2245C8.84766 24.5371 8.8689 24.2404 9.29272 23.7106C10.0344 22.757 10.755 22.5238 12.9377 22.5238C14.8875 22.5238 14.951 22.5027 17.1125 21.4642C19.4861 20.2987 21.9656 18.7728 22.8981 17.9039L23.4702 17.353L23.4702 18.6456C23.4702 19.9172 23.449 19.9596 22.4954 20.8073C21.139 21.994 19.6344 22.9689 17.6423 23.9225C16.71 24.3887 15.8834 24.8337 15.7987 24.9609C15.6079 25.2152 15.5656 40.9821 15.7563 41.4695C15.8198 41.6603 16.0106 41.8086 16.1802 41.8086C16.4344 41.8086 16.4768 40.4735 16.4768 33.5861L16.4768 25.3635L17.6423 24.8761C19.1259 24.2616 21.6901 22.6086 22.9404 21.443L23.8728 20.5742L24.996 21.5278C26.3947 22.7146 28.2808 23.9225 29.9973 24.7278L31.3113 25.3635L31.3536 33.5225C31.4172 41.1093 31.4384 41.7026 31.7987 41.7662C32.1377 41.8298 32.1589 41.3212 32.1589 33.3318L32.1589 24.8337L30.739 24.198C28.9377 23.3927 26.1616 21.549 25.1019 20.447C24.3602 19.6841 24.2966 19.5358 24.3602 18.5397L24.4238 17.4801L25.8013 18.5186C26.5642 19.0907 28.4716 20.2139 30.0609 21.0404L32.9642 22.5238L35.041 22.5238C36.7788 22.5238 37.2662 22.6086 37.8384 22.9476C38.9828 23.647 39.1523 24.3676 39.1523 28.5211L39.1523 32.1874L38.1987 33.1199L37.245 34.0522L37.245 37.9517C37.245 41.5331 37.2662 41.8298 37.6265 41.7662C37.9443 41.7026 37.9868 41.3212 38.0503 37.9728L38.0928 34.2643L39.0464 33.3318L40 32.3993L40 28.6272C40 23.8589 39.7245 23.0325 37.8384 22.0787C37.2239 21.7609 36.5881 21.6761 35.0623 21.6761C33.1549 21.6761 33.0278 21.6549 31.1205 20.7225C28.4927 19.4509 26.3523 18.0522 25.0385 16.7596L23.9576 15.7L23.1311 16.5901Z" fill="#FFFFFF" fill-opacity="1.000000" fill-rule="nonzero"/>
</svg>
