<svg width="50.000000" height="50.000000" viewBox="0 0 50 50" fill="none" xmlns="http://www.w3.org/2000/svg" xmlns:xlink="http://www.w3.org/1999/xlink">
	<desc>
			Created with Pixso.
	</desc>
	<defs/>
	<path id="Vector" d="M21.7399 11.3044C21.5339 11.4916 20.4109 13.2698 19.2692 15.2725C17.4161 18.5106 17.1541 19.0533 17.0605 20.0641C16.9482 21.0936 16.6862 21.6364 14.047 26.2035C11.595 30.4336 11.0897 31.2009 10.734 31.2009C10.079 31.2009 9.51746 31.8748 9.57361 32.5861C9.61096 32.9791 9.51746 33.316 9.31152 33.522C8.88098 33.9524 8.89978 34.9819 9.349 35.3937C9.57361 35.5995 9.64844 35.8616 9.59229 36.161C9.49866 36.6852 9.98535 37.5648 10.3784 37.5648C10.5656 37.5648 10.6405 37.7894 10.6217 38.2386C10.603 38.744 10.7153 39.0248 11.0336 39.2682C11.4265 39.5863 11.8384 39.6238 15.9 39.6238C20.2799 39.6238 20.3547 39.6238 21.2719 39.1559L22.1891 38.6879L28.0101 38.6879L33.8313 38.6879L34.2617 39.1559C34.7859 39.7174 35.3661 39.7548 35.9651 39.2682C36.302 39.0061 36.4891 38.95 36.7512 39.0997C37.2753 39.3805 38.0801 38.95 38.4357 38.2013C38.6041 37.8456 38.8662 37.5648 39.0347 37.5648C39.4277 37.5648 39.9331 36.7039 39.8208 36.236C39.746 35.9552 39.8395 35.8241 40.1577 35.6931C40.6444 35.506 41 34.9819 41 34.4578C41 34.1583 37.7618 28.3746 36.7699 26.8772C36.5266 26.5216 35.9838 26.035 35.5907 25.8104C34.973 25.4547 34.5051 24.7622 31.9595 20.3636C29.208 15.5907 29.0583 15.2725 29.2455 14.7671C29.4326 14.2992 29.3953 14.1121 29.1332 13.7002C28.946 13.4194 28.6465 13.1387 28.4594 13.1013C28.2722 13.0452 28.0288 12.7644 27.9166 12.4836C27.7107 11.8472 27.1305 11.5103 26.4379 11.5664C26.1571 11.6039 25.7454 11.5291 25.5208 11.3979C25.0154 11.1172 24.1169 11.0985 23.8362 11.3793C23.6864 11.5291 23.5179 11.5103 23.1998 11.2856C22.6383 10.8926 22.2264 10.9114 21.7399 11.3044ZM22.9939 12.2216C23.0314 12.4275 22.6008 13.4008 22.0206 14.374C21.2906 15.6282 21.066 16.2084 21.197 16.3582C21.3093 16.4891 21.4591 16.564 21.5339 16.5078C21.6088 16.4705 22.2452 15.4036 22.9564 14.1682C23.6677 12.9329 24.3602 11.8846 24.51 11.8285C24.7908 11.7162 25.2775 12.0531 25.2775 12.3525C25.2775 12.4648 24.6785 13.6067 23.9485 14.8794C23.0875 16.4143 22.6945 17.2753 22.8068 17.3876C22.9191 17.4999 23.0875 17.5186 23.1998 17.4624C23.2933 17.3876 24.0421 16.2084 24.8282 14.8232C26.0074 12.7456 26.3256 12.2964 26.6813 12.2964C27.5236 12.2964 27.3738 12.8392 25.8202 15.5159C24.7908 17.2753 24.3602 18.1924 24.4913 18.3235C24.7908 18.6229 24.9967 18.3795 26.0448 16.5453C27.4486 14.0559 27.692 13.7563 28.1411 13.8313C28.3657 13.8687 28.5717 14.0184 28.6091 14.1869C28.6278 14.3367 27.8605 15.8528 26.8871 17.5374C25.9138 19.2218 25.1652 20.6818 25.2025 20.7567C25.4271 21.1123 25.8015 20.8315 26.3817 19.8583C26.7186 19.2968 27.1678 18.7539 27.3925 18.6791C27.8043 18.5293 28.4594 18.6229 28.4594 18.8287C28.4594 19.0908 26.3817 22.4786 26.0636 22.7032C25.8951 22.8344 25.0902 23.1713 24.3041 23.4332L22.8629 23.9199L21.2532 26.7275C19.8119 29.1982 19.6061 29.4977 19.2878 29.3292C19.1007 29.2356 17.8467 29.1421 16.499 29.1421C14.3091 29.1421 14.047 29.1794 13.8785 29.4977C13.7476 29.7223 13.7476 30.0592 13.8599 30.4709C13.9534 30.8079 14.0095 31.1074 13.9722 31.1448C13.9347 31.1823 13.4855 31.2009 12.9614 31.1636L12.0255 31.1074L14.908 26.1473C17.5659 21.5428 17.7905 21.1123 17.7905 20.2325C17.7905 19.3903 17.959 18.9972 19.4001 16.4891C20.2799 14.9543 21.2719 13.251 21.5714 12.7083C22.0206 11.9408 22.2264 11.7349 22.5447 11.7723C22.7693 11.8098 22.9564 11.9783 22.9939 12.2216ZM31.7349 21.3931C33.251 24.0135 34.5986 26.1473 34.7109 26.1473C35.3286 26.1473 36.433 27.5885 38.2672 30.8267C39.3529 32.717 40.2513 34.4204 40.2513 34.5889C40.2513 34.8696 39.8956 35.1316 39.5026 35.1316C39.4277 35.1316 38.8475 34.252 38.2111 33.1663C37.3876 31.7438 36.9945 31.2384 36.7886 31.3132C36.6389 31.3882 36.5078 31.463 36.5078 31.5192C36.5078 31.5753 37.1068 32.6797 37.8555 33.9712C38.8849 35.7867 39.147 36.3669 38.9972 36.6102C38.5668 37.3029 38.1549 36.9285 36.826 34.6075C35.6094 32.5299 35.1976 32.062 34.9355 32.4738C34.8982 32.5486 35.5345 33.8027 36.3582 35.2252C37.8741 37.9017 38.0052 38.4071 37.1442 38.4071C36.8822 38.4071 36.3768 37.6959 35.2913 35.8241C33.9248 33.4658 33.5131 32.9978 33.251 33.4097C33.1948 33.5032 33.7377 34.5701 34.449 35.8054C35.834 38.1451 35.9838 38.7815 35.2163 38.7815C34.8232 38.7815 34.5238 38.3698 33.0638 35.8429C32.1279 34.2332 31.267 32.8107 31.136 32.6797C30.7616 32.3053 30.6118 33.0353 30.9487 33.6155C31.9595 35.3375 31.9408 35.2814 31.6414 35.8241C31.4916 36.0862 31.2856 36.3483 31.1733 36.3669C31.0049 36.4231 29.2455 33.4658 28.946 32.6235C28.8899 32.4363 28.9647 31.5378 29.1519 30.6394L29.4514 29.011L27.8605 26.2408L26.2507 23.4707L26.7 23.0776C27.1678 22.6471 29.208 19.2031 29.208 18.8287C29.208 18.3983 28.5903 17.9116 28.0476 17.9116L27.5048 17.9116L28.0288 16.9758C28.478 16.1709 28.5903 16.0774 28.7776 16.3394C28.8899 16.5078 30.2188 18.7726 31.7349 21.3931ZM27.3176 26.7462C28.6091 28.9736 28.684 29.1608 28.553 29.9282C28.3096 31.5192 28.6278 31.3882 25.0341 31.3882L21.8147 31.3694L21.0286 30.6394L20.2424 29.8907L21.7772 27.2141L23.3308 24.5563L24.4352 24.1632C25.4646 23.7889 25.5769 23.7889 25.764 24.0697C25.8763 24.2382 26.569 25.436 27.3176 26.7462ZM20.3922 31.0138L21.6837 32.1368L24.9218 32.1743L28.1599 32.2305L28.2909 32.792C28.3845 33.2974 30.0691 36.3669 30.5557 36.9471C30.8739 37.3215 31.4354 37.2279 31.9595 36.7039C32.3339 36.3295 32.4836 36.2733 32.6146 36.4792C32.8767 36.8723 33.3259 37.7146 33.3259 37.8456C33.3259 37.9017 30.7616 37.9392 27.6171 37.9392C21.9832 37.9392 21.8895 37.9392 21.328 38.351C20.7853 38.7628 20.5793 38.7815 16.2183 38.8376C12.4747 38.8751 11.6324 38.8376 11.4453 38.6317C11.333 38.4821 11.2769 38.22 11.3517 38.0702C11.4453 37.8082 11.8571 37.7521 13.7288 37.7146C15.7129 37.6584 16.0123 37.621 16.0685 37.3402C16.1246 37.0408 15.8625 37.0033 13.2609 36.9659C10.3971 36.9098 10.3971 36.9098 10.3409 36.4606C10.3036 36.2172 10.3784 35.9364 10.5282 35.8616C10.6592 35.7679 11.9694 35.6931 13.448 35.6931C15.5818 35.6931 16.106 35.637 16.106 35.431C16.106 35.0381 15.4883 34.9445 12.5309 34.9445C10.1725 34.9445 9.76074 34.907 9.66711 34.645C9.40515 33.9524 9.85437 33.8401 12.9988 33.7839C15.5256 33.7278 16.0123 33.6904 16.0123 33.447C16.0123 33.2224 15.5256 33.1476 13.2047 33.0728L10.3971 32.9791L10.3971 32.5112L10.3971 32.0432L14.1406 31.9497C17.3038 31.8748 17.884 31.8186 17.884 31.5753C17.884 31.3507 17.5846 31.2759 16.5364 31.2384C15.3385 31.1823 15.1326 31.1261 14.7957 30.6956C14.5898 30.4336 14.4214 30.134 14.4214 30.0592C14.4214 29.9656 15.4695 29.8907 16.761 29.8907L19.082 29.8907L20.3922 31.0138Z" fill="#FFFFFF" fill-opacity="1.000000" fill-rule="nonzero"/>
</svg>
