<svg width="50.000000" height="50.000000" viewBox="0 0 50 50" fill="none" xmlns="http://www.w3.org/2000/svg" xmlns:xlink="http://www.w3.org/1999/xlink">
	<desc>
			Created with Pixso.
	</desc>
	<defs/>
	<path id="Vector" d="M23.1036 8.2655C22.6031 8.40503 21.7969 8.99097 21.2408 9.60486C19.1556 11.9486 19.795 16.2177 22.4364 17.5848C23.6041 18.1986 25.7172 18.115 26.8292 17.4453C30.1935 15.3805 29.4984 9.27002 25.7727 8.23755C24.6328 7.90283 24.2714 7.93066 23.1036 8.2655ZM26.2732 9.63269C27.8857 10.6372 28.4696 13.1484 27.5521 15.1016C26.3844 17.5291 22.6588 17.5291 21.4911 15.1016C20.2122 12.395 21.8802 9.07471 24.5216 9.07471C24.9943 9.07471 25.7727 9.32581 26.2732 9.63269Z" fill="#FFFFFF" fill-opacity="1.000000" fill-rule="nonzero"/>
	<path id="Vector" d="M33.1036 8.2655C32.6031 8.40503 31.7969 8.99097 31.2408 9.60486C29.1556 11.9486 29.795 16.2177 32.4364 17.5848C33.6041 18.1986 35.7172 18.115 36.8292 17.4453C40.1935 15.3805 39.4984 9.27002 35.7727 8.23755C34.6328 7.90283 34.2714 7.93066 33.1036 8.2655ZM36.2732 9.63269C37.8857 10.6372 38.4696 13.1484 37.5521 15.1016C36.3844 17.5291 32.6588 17.5291 31.4911 15.1016C30.2122 12.395 31.8802 9.07471 34.5216 9.07471C34.9943 9.07471 35.7727 9.32581 36.2732 9.63269Z" fill="#FFFFFF" fill-opacity="1.000000" fill-rule="nonzero"/>
	<path id="Vector" d="M13.1036 8.2655C12.6031 8.40503 11.7969 8.99097 11.2408 9.60486C9.15564 11.9486 9.79504 16.2177 12.4364 17.5848C13.6041 18.1986 15.7172 18.115 16.8292 17.4453C20.1935 15.3805 19.4984 9.27002 15.7727 8.23755C14.6328 7.90283 14.2714 7.93066 13.1036 8.2655ZM16.2732 9.63269C17.8857 10.6372 18.4696 13.1484 17.5521 15.1016C16.3844 17.5291 12.6588 17.5291 11.4911 15.1016C10.2122 12.395 11.8802 9.07471 14.5216 9.07471C14.9943 9.07471 15.7727 9.32581 16.2732 9.63269Z" fill="#FFFFFF" fill-opacity="1.000000" fill-rule="nonzero"/>
	<path id="Vector" d="M37.3632 19.6614C36.9684 19.7491 36.5955 19.9465 36.5297 20.0563C36.4419 20.1879 32.2302 20.2756 24.9474 20.2756C15.2299 20.2537 13.431 20.2097 13.0801 19.9465C12.8387 19.771 12.2684 19.6176 11.8079 19.6176C11.1058 19.6176 10.7987 19.771 9.98706 20.6046C9.13159 21.4382 9 21.7014 9 22.4911C9 23.215 9.13159 23.5221 9.65808 24.0046L10.3162 24.6189L10.3162 28.4358L10.3162 32.2526L11.413 33.3275L12.5098 34.4023L12.5536 38.5702C12.6194 42.3431 12.6633 42.7599 13.0143 42.8257C13.3652 42.8916 13.3872 42.5845 13.3872 38.5482L13.3872 34.183L12.2904 33.1082L11.1936 32.0332L11.1936 28.2383C11.1936 25.1672 11.2594 24.4434 11.5007 24.4434C11.6543 24.4434 12.2246 24.0706 12.7291 23.6099C13.431 22.9956 13.6943 22.5789 13.804 21.9208L13.9355 21.0433L17.7305 20.9775C19.7925 20.9556 21.5035 20.9775 21.5035 21.0214C21.5035 21.0872 20.9551 21.877 20.297 22.8202L19.0906 24.4873L19.1344 33.6345C19.2002 42.1238 19.2222 42.7599 19.5951 42.8257C19.946 42.8916 19.968 42.3431 19.968 33.7881L19.968 24.6627L21.328 22.7982L22.688 20.9336L24.9255 20.9336L27.163 20.9336L28.4353 22.6227L29.7295 24.3337L29.8391 33.5469C29.9489 42.08 29.9708 42.7599 30.3438 42.8257C30.6947 42.8916 30.7166 42.3431 30.7166 33.5907L30.7166 24.3118L29.4882 22.6666L28.2817 21.0433L31.8573 20.9775C33.8096 20.9556 35.5425 20.9775 35.696 21.0214C35.8496 21.0872 35.9812 21.3943 35.9812 21.7014C35.9812 22.3157 37.4949 24.1144 38.1968 24.3337C38.5916 24.4653 38.6135 24.7285 38.6135 28.2603L38.6135 32.0332L37.5167 33.1082L36.4199 34.205L36.4639 38.4824C36.5297 42.3431 36.5735 42.7599 36.9244 42.8257C37.2755 42.8916 37.2974 42.5845 37.2974 38.7676L37.2974 34.6217L38.3942 33.5469L39.491 32.4719L39.491 28.5894L39.491 24.7067L40.2806 23.917C40.9827 23.215 41.0704 23.0176 40.9607 22.3157C40.8071 21.4163 39.5568 19.9685 38.6355 19.6614C38.3064 19.5516 37.7581 19.5516 37.3632 19.6614ZM12.7291 20.7144C13.3652 21.3505 13.2775 21.7672 12.2026 22.8202C11.1936 23.8292 10.8427 23.9608 10.2723 23.5001C9.48254 22.886 9.57031 22.2717 10.6013 21.2627C11.6761 20.1659 12.071 20.0562 12.7291 20.7144ZM39.2936 21.1311C40.2806 22.1182 40.4124 22.9298 39.6665 23.4343C38.9645 23.9388 38.7233 23.873 37.7361 22.9956C36.7051 22.0524 36.5515 21.1749 37.3413 20.6266C38.0652 20.1221 38.3503 20.1879 39.2936 21.1311Z" fill="#FFFFFF" fill-opacity="1.000000" fill-rule="nonzero"/>
</svg>
